<?xml version="1.0" standalone="no"?>
<!DOCTYPE svg PUBLIC "-//W3C//DTD SVG 1.1//EN" "http://www.w3.org/Graphics/SVG/1.1/DTD/svg11.dtd" >
<svg>
<metadata>
Created by FontForge 20090914 at Wed Nov 23 15:37:09 2016
 By www-data
Kaiserzharkhan &#194;&#169; (http://truefonts.blogspot.com). 2013. FREE FONT
</metadata>
<defs>
<font id="QRfonttfb" horiz-adv-x="1003" >
  <font-face 
    font-family="QR font tfb"
    font-weight="400"
    font-stretch="normal"
    units-per-em="1024"
    panose-1="2 0 5 0 0 0 0 0 0 0"
    ascent="819"
    descent="-205"
    x-height="840"
    cap-height="840"
    bbox="-44 0 840 840"
    underline-thickness="150"
    underline-position="-142"
    unicode-range="U+0020-U+F002"
  />
<missing-glyph horiz-adv-x="1024" 
 />
    <glyph glyph-name=".notdef" horiz-adv-x="1024" 
 />
    <glyph glyph-name="space" unicode=" " 
 />
    <glyph glyph-name="space" unicode="&#xa0;" 
 />
    <glyph glyph-name="exclam" unicode="!" 
d="M0 840h280v-280h-280v280zM400 840h80v-40h-40v-40h-40v80zM560 840h280v-280h-280v280zM40 800v-200h200v200h-200zM600 800v-200h200v200h-200zM480 800h40v-280h-80v40h40v40h-40v40h40v80h-40v40h40v40zM80 760h120v-120h-120v120zM360 760h40v-40h-40v40zM640 760
h120v-120h-120v120zM400 680h40v-40h-40v40zM320 640h40v-80h-40v80zM400 600h40v-40h-40v40zM0 520h40v-80h40v40h40v40h40v-40h40v-40h80v-40h-120v-80h-40v80h-40v-40h-40v40h-40v120zM200 520h80v-40h-80v40zM320 520h40v-40h-40v40zM400 520h40v-80h-40v80zM520 520h40
v-40h-40v40zM600 520h40v-40h-40v40zM280 480h40v-40h-40v40zM560 480h40v-40h-40v40zM720 480h80v-40h40v-160h-40v120h-40v40h-40v40zM320 440h40v-40h-40v40zM480 440h80v-40h-80v40zM360 400h120v-40h-80v-40h-40v-40h-40v40h-120v40h160v40zM680 400h80v-80h-40v40h-40
v40zM480 360h40v-40h-40v40zM560 360h40v-40h-40v40zM640 360h40v-40h40v-40h-80v-40h80v-40h120v-120h-40v40h-120v40h-120v40h40v120h40v40zM440 320h40v-40h-40v40zM0 280h280v-280h-280v280zM360 280h40v-40h-40v40zM520 280h40v-80h-80v-80h-40v80h-40v40h120v40z
M720 280h40v-40h-40v40zM40 240v-200h200v200h-200zM320 240h40v-40h-40v40zM80 200h120v-120h-120v120zM360 200h40v-40h-40v40zM320 160h40v-40h-40v40zM400 120h40v-40h-40v40zM480 120h40v-40h-40v40zM640 120h40v-80h40v40h40v-40h40v-40h-160v120zM360 80h40v-40h120
v-40h-200v40h40v40zM520 80h80v-40h-80v40z" />
    <glyph glyph-name="quotedbl" unicode="&#x22;" 
 />
    <glyph glyph-name="numbersign" unicode="#" 
 />
    <glyph glyph-name="dollar" unicode="$" 
d="M0 840h280v-280h-280v280zM320 840h80v-120h40v-40h-80v-40h120v-40h-40v-40h40v40h40v-80h-40v-40h40v-40h-40v-40h-40v120h-40v80h-40v-80h40v-40h-40v-80h-40v80h-80v40h80v200h40v80h-40v40zM440 840h40v-40h-40v40zM560 840h280v-280h-280v280zM40 800v-200h200v200
h-200zM600 800v-200h200v200h-200zM480 800h40v-40h-40v40zM80 760h120v-120h-120v120zM640 760h120v-120h-120v120zM480 680h40v-40h-40v40zM0 520h40v-160h40v-40h-80v200zM160 520h40v-80h-40v80zM520 520h200v-80h40v-80h40v-40h40v-80h-80v40h-40v120h-40v-40h-40v40
h-40v-120h-40v-40h-40v-40h-40v-40h40v-40h-40v-40h-40v40h-40v-40h40v-40h-40v-40h-80v40h40v120h-40v40h80v-40h40v80h40v120h40v40h40v40h40v40h-80v40zM800 520h40v-80h-80v40h40v40zM640 480v-40h40v40h-40zM80 440h40v-40h40v-40h-80v80zM200 440h80v-40h-40v-40h40
v-40h-80v120zM280 400h40v-40h-40v40zM400 400h40v-40h-40v40zM800 400h40v-40h-40v40zM320 360h40v-40h40v-40h40v-40h-120v120zM0 280h280v-280h-280v280zM40 240v-200h200v200h-200zM600 240h40v-40h40v40h40v-40h120v-80h-80v40h-40v-40h40v-80h40v40h40v-80h-120v80
h-40v-40h-40v40h-40v-80h-120v40h40v40h40v40h40v40h-40v40h40v40zM80 200h120v-120h-120v120zM640 160v-40h40v40h-40z" />
    <glyph glyph-name="percent" unicode="%" 
d="M0 840h280v-280h-280v280zM360 840h40v-80h-40v80zM440 840h40v-80h-40v80zM560 840h280v-280h-280v280zM40 800v-200h200v200h-200zM600 800v-200h200v200h-200zM80 760h120v-120h-120v120zM320 760h40v-40h40v40h40v-80h-40v-40h80v-40h-40v-40h-40v40h-40v-80h-40v240
zM480 760h40v-40h-40v40zM640 760h120v-120h-120v120zM480 680h40v-40h-40v40zM480 600h40v-40h-40v40zM0 520h40v-40h40v40h200v-40h-40v-40h-40v40h-40v-40h-80v-40h-40v40h-40v80zM440 520h40v-40h80v40h200v-40h-40v-40h-40v40h-80v-40h40v-40h-40v-40h-80v-80h-40v80
h-120v40h-40v80h80v-80h80v40h-40v80zM520 440v-40h40v40h-40zM160 440h40v-40h-40v40zM240 440h40v-40h-40v40zM120 400h40v-80h-80v40h40v40zM680 400h40v-40h-40v40zM0 360h40v-40h-40v40zM240 360h80v-40h-80v40zM600 360h40v-80h-40v80zM720 360h120v-40h-80v-40h80
v-40h-80v-80h-40v-40h-40v40h-40v40h-40v40h40v40h80v80zM320 320h40v-40h-40v40zM400 320h40v-40h40v-40h-120v40h40v40zM0 280h280v-280h-280v280zM520 280h40v-40h-40v40zM40 240v-200h200v200h-200zM680 240v-40h40v40h-40zM320 240h40v-120h80v-40h40v40h-40v40h-40v40
h80v-40h40v40h40v-40h40v-40h40v-40h-40v-40h-80v-40h-40v40h-80v40h-80v160zM80 200h120v-120h-120v120zM520 120v-40h40v40h-40zM680 80h40v-40h-40v40zM800 80h40v-40h-40v40zM320 40h40v-40h-40v40zM600 40h40v-40h-40v40zM720 40h40v-40h-40v40z" />
    <glyph glyph-name="ampersand" unicode="&#x26;" 
 />
    <glyph glyph-name="quotesingle" unicode="'" 
 />
    <glyph glyph-name="parenleft" unicode="(" 
d="M0 840h280v-280h-280v280zM400 840h40v-40h-40v40zM480 840h40v-40h-40v40zM560 840h280v-280h-280v280zM40 800v-200h200v200h-200zM600 800v-200h200v200h-200zM360 800h40v-40h-40v40zM80 760h120v-120h-120v120zM320 760h40v-40h40v-40h40v-40h40v-40h-40v-40h-40v40
h-40v-80h-40v240zM400 760h120v-40h-40v-40h-40v40h-40v40zM640 760h120v-120h-120v120zM480 680h40v-40h-40v40zM480 600h40v-40h-40v40zM0 520h40v-40h40v40h200v-40h-40v-40h-80v40h-40v-80h-80v40h-40v80zM360 520h40v-80h-80v40h40v40zM440 520h40v-40h80v40h200v-40
h-40v-40h-40v40h-80v-40h40v-40h-40v-40h-80v-80h-40v80h-80v40h80v40h-40v80zM520 440v-40h40v40h-40zM240 440h80v-40h-80v40zM0 400h40v-40h-40v40zM160 400h40v-40h200v-40h-40v-40h-40v40h-160v80zM680 400h40v-40h-40v40zM80 360h40v-40h-40v40zM600 360h40v-80h-40
v80zM720 360h40v-120h40v-40h-40v-40h-40v-40h-40v40h-40v40h-40v40h40v40h80v80zM800 360h40v-80h-40v80zM0 280h280v-280h-280v280zM360 280h40v-40h40v-40h40v-40h40v40h40v-40h40v-40h40v-40h-40v-40h-80v-40h-40v40h-40v40h40v40h-80v-40h-80v160h40v40zM440 280h40
v-40h-40v40zM520 280h40v-40h-40v40zM40 240v-200h200v200h-200zM680 240v-40h40v40h-40zM360 200v-40h40v40h-40zM80 200h120v-120h-120v120zM520 120v-40h40v40h-40zM680 80h40v-40h-40v40zM320 40h120v-40h-120v40zM600 40h40v-40h-40v40zM720 40h80v-40h-80v40z" />
    <glyph glyph-name="parenright" unicode=")" 
d="M0 840h280v-280h-280v280zM320 840h40v-40h40v-40h40v-40h-80v40h-40v80zM400 840h120v-80h-80v40h-40v40zM560 840h280v-280h-280v280zM40 800v-200h200v200h-200zM600 800v-200h200v200h-200zM80 760h120v-120h-120v120zM640 760h120v-120h-120v120zM320 720h40v-40
h-40v40zM480 720h40v-40h-40v40zM360 680h40v-40h40v40h40v-40h40v-160h40v40h40v-80h-120v-80h-40v40h-40v40h40v120h40v40h-40v-40h-40v40h-40v80zM320 600h40v-40h40v-80h-40v40h-40v80zM0 520h40v-40h-40v40zM80 520h80v-40h40v40h120v-40h40v-40h-80v40h-40v-40h-80
v-80h-40v40h-40v120zM680 520h40v-80h40v-120h-40v40h-80v-40h-40v40h-40v40h120v120zM760 520h80v-40h-80v40zM240 440h40v-40h-40v40zM800 440h40v-40h-40v40zM320 400h80v-160h40v-40h-120v200zM0 360h120v-40h-120v40zM200 360h80v-40h-80v40zM480 360h40v-40h-40v40z
M800 360h40v-40h-40v40zM440 320h40v-40h40v-40h-80v80zM560 320h40v-40h-40v40zM680 320h40v-80h-40v80zM0 280h280v-280h-280v280zM600 280h40v-40h40v-80h120v-40h-160v-80h-40v40h-40v80h-80v40h120v80zM760 280h40v-80h-80v40h40v40zM40 240v-200h200v200h-200zM80 200
h120v-120h-120v120zM800 200h40v-40h-40v40zM320 160h160v-40h-80v-40h40v-40h-40v-40h-80v40h40v40h-40v80zM480 120h40v-40h-40v40zM520 80h40v-80h-40v80zM720 80h40v-40h-40v40zM800 80h40v-40h-40v40zM640 40h40v-40h-40v40z" />
    <glyph glyph-name="asterisk" unicode="*" 
d="M0 840h280v-280h-280v280zM320 840h40v-40h-40v40zM480 840h40v-120h-40v120zM560 840h280v-280h-280v280zM40 800v-200h200v200h-200zM600 800v-200h200v200h-200zM360 800h80v-40h-80v40zM80 760h120v-120h-120v120zM640 760h120v-120h-120v120zM320 720h160v-40h-40
v-40h-40v-40h-40v-120h40v40h40v40h40v40h40v-80h-40v-40h40v-40h-40v-40h-40v40h-40v-120h-40v40h-40v-40h-120v40h-80v40h-40v40h80v-40h40v40h-40v80h40v-40h40v-40h40v-40h-40v-40h40v40h80v40h-80v40h-40v40h80v200zM480 680h40v-40h-40v40zM440 640h40v-40h-40v40z
M400 600h40v-40h-40v40zM0 520h40v-40h-40v40zM520 520h200v-80h40v-120h80v-80h-80v40h-40v120h-40v-40h-40v40h-40v-120h-40v-40h-40v-40h-40v-40h40v-40h-40v-40h-40v40h-40v-40h40v-80h-40v40h-40v120h-40v40h40v40h-40v80h40v-40h40v40h40v-80h40v120h40v40h40v40h40
v40h-80v40zM800 520h40v-80h-80v40h40v40zM640 480v-40h40v40h-40zM40 480h40v-40h-40v40zM0 440h40v-40h40v-40h-80v80zM800 400h40v-40h-40v40zM0 280h280v-280h-280v280zM40 240v-200h200v200h-200zM600 240h40v-40h40v40h40v-40h120v-80h-80v40h-40v-40h40v-80h40v40h40
v-80h-120v80h-40v-40h-40v40h-40v-80h-120v40h40v40h40v40h40v40h-40v40h40v40zM400 200v-40h40v40h-40zM80 200h120v-120h-120v120zM640 160v-40h40v40h-40zM320 40h40v-40h-40v40z" />
    <glyph glyph-name="plus" unicode="+" 
d="M0 840h280v-280h-280v280zM320 840h80v-40h-80v40zM480 840h40v-40h-40v40zM560 840h280v-280h-280v280zM40 800v-200h200v200h-200zM600 800v-200h200v200h-200zM400 800h80v-40h40v-120h-40v80h-40v40h-40v40zM80 760h120v-120h-120v120zM360 760h40v-80h40v-40h-80
v-160h-120v40h80v200h40v40zM640 760h120v-120h-120v120zM440 640h40v-40h-40v40zM400 600h40v-40h-40v40zM480 600h40v-80h-40v-40h40v-40h-40v-40h-40v-40h-40v80h-40v40h40v40h40v40h40v40zM0 520h40v-40h-40v40zM160 520h40v-40h-40v40zM520 520h200v-80h40v-80h40v-40
h40v-80h-80v40h-40v120h-40v-40h-40v40h-40v-120h-40v-40h-40v-40h-40v-40h40v-40h-40v-40h-40v80h-40v-80h-40v80h-40v40h40v40h-40v80h40v-40h40v-80h40v40h40v120h40v40h40v40h40v40h-80v40zM800 520h40v-80h-80v40h40v40zM640 480v-40h40v40h-40zM40 480h40v-80h40v40
h40v-80h-160v80h40v40zM200 440h80v-40h-40v-40h-40v80zM320 400h40v-40h-40v40zM240 360h80v-40h-80v40zM0 280h280v-280h-280v280zM40 240v-200h200v200h-200zM600 240h40v-40h40v40h40v-40h120v-80h-80v40h-40v-40h40v-80h40v40h40v-80h-120v80h-40v-40h-40v40h-40v-80
h-120v40h40v40h40v40h40v40h-40v40h40v40zM80 200h120v-120h-120v120zM640 160v-40h40v40h-40zM320 40h40v-40h-40v40zM400 40h40v-40h-40v40z" />
    <glyph glyph-name="comma" unicode="," 
d="M0 840h280v-280h-280v280zM320 840h160v-40h40v-80h-80v40h-40v40h-40v-40h-40v80zM560 840h280v-280h-280v280zM40 800v-200h200v200h-200zM600 800v-200h200v200h-200zM80 760h120v-120h-120v120zM640 760h120v-120h-120v120zM320 720h80v-80h-40v40h-40v40zM440 680
h40v-40h40v-160h40v40h40v-80h-120v-80h-80v40h40v40h-40v40h40v40h-40v-40h-40v40h-40v80h40v-40h40v80h40v40zM440 600v-40h40v40h-40zM0 520h40v-40h-40v40zM80 520h80v-40h-40v-40h-40v80zM200 520h120v-40h40v-40h-40v-40h40v-40h-80v40h-80v40h80v40h-80v40zM680 520
h40v-80h40v-40h40v-40h40v-40h-120v40h-80v-40h-40v40h-40v40h120v120zM760 520h80v-40h-80v40zM160 480h40v-40h-40v40zM0 440h80v-40h-80v40zM800 440h40v-40h-40v40zM80 400h120v-40h80v-40h-120v40h-40v-40h-120v40h80v40zM480 360h40v-40h-40v40zM320 320h40v-120h-40
v120zM400 320h80v-40h40v-40h-120v80zM560 320h40v-40h-40v40zM680 320h40v-80h-40v80zM0 280h280v-280h-280v280zM600 280h40v-40h40v-80h120v-40h-160v-80h-40v40h-40v80h-80v40h120v80zM760 280h40v-80h-80v40h40v40zM40 240v-200h200v200h-200zM80 200h120v-120h-120
v120zM360 200h80v-40h-80v40zM800 200h40v-40h-40v40zM320 160h40v-40h40v-80h40v-40h-120v40h40v40h-40v80zM440 160h40v-40h-40v40zM480 120h40v-40h-40v40zM520 80h40v-80h-40v80zM720 80h40v-40h-40v40zM800 80h40v-40h-40v40zM640 40h40v-40h-40v40z" />
    <glyph glyph-name="hyphen" unicode="-" 
d="M0 840h280v-280h-280v280zM360 840h80v-80h-40v40h-40v40zM560 840h280v-280h-280v280zM40 800v-200h200v200h-200zM600 800v-200h200v200h-200zM80 760h120v-120h-120v120zM320 760h80v-40h-40v-40h80v-40h40v-40h-40v-80h-40v120h-40v-120h-40v240zM640 760h120v-120
h-120v120zM440 720h80v-80h-40v40h-40v40zM480 600h40v-40h-40v40zM0 520h40v-40h40v40h200v-40h-80v-40h-40v-40h-40v40h-80v-80h-40v160zM360 520h40v-40h40v40h40v-40h80v40h200v-40h-40v-40h-40v40h-80v-40h40v-40h-40v-40h-80v-80h-40v80h-40v40h40v40h-40v-40h-40v40
h-80v40h40v40zM520 440v-40h40v40h-40zM200 440h80v-40h-80v40zM80 400h40v-80h-40v80zM280 400h40v-80h-120v40h80v40zM360 400h40v-40h-40v40zM680 400h40v-40h-40v40zM760 400h40v-40h40v-80h-40v40h-40v-80h40v-40h-40v-40h-40v-40h-40v40h-40v40h-40v40h40v40h80v80h40
v40zM600 360h40v-80h-40v80zM320 320h120v-40h40v-40h-80v40h-80v40zM0 280h280v-280h-280v280zM520 280h40v-40h-40v40zM40 240v-200h200v200h-200zM680 240v-40h40v40h-40zM320 240h40v-40h40v-40h-40v-40h40v-40h-80v160zM80 200h120v-120h-120v120zM440 200h40v-40h40
v40h40v-40h40v-40h40v-40h-40v-40h-80v-40h-40v40h-80v40h80v40h-40v80zM520 120v-40h40v40h-40zM680 80h40v-40h-40v40zM320 40h80v-40h-80v40zM600 40h40v-40h-40v40zM720 40h80v-40h-80v40z" />
    <glyph glyph-name="hyphen" unicode="&#xad;" 
d="M0 840h280v-280h-280v280zM360 840h80v-80h-40v40h-40v40zM560 840h280v-280h-280v280zM40 800v-200h200v200h-200zM600 800v-200h200v200h-200zM80 760h120v-120h-120v120zM320 760h80v-40h-40v-40h80v-40h40v-40h-40v-80h-40v120h-40v-120h-40v240zM640 760h120v-120
h-120v120zM440 720h80v-80h-40v40h-40v40zM480 600h40v-40h-40v40zM0 520h40v-40h40v40h200v-40h-80v-40h-40v-40h-40v40h-80v-80h-40v160zM360 520h40v-40h40v40h40v-40h80v40h200v-40h-40v-40h-40v40h-80v-40h40v-40h-40v-40h-80v-80h-40v80h-40v40h40v40h-40v-40h-40v40
h-80v40h40v40zM520 440v-40h40v40h-40zM200 440h80v-40h-80v40zM80 400h40v-80h-40v80zM280 400h40v-80h-120v40h80v40zM360 400h40v-40h-40v40zM680 400h40v-40h-40v40zM760 400h40v-40h40v-80h-40v40h-40v-80h40v-40h-40v-40h-40v-40h-40v40h-40v40h-40v40h40v40h80v80h40
v40zM600 360h40v-80h-40v80zM320 320h120v-40h40v-40h-80v40h-80v40zM0 280h280v-280h-280v280zM520 280h40v-40h-40v40zM40 240v-200h200v200h-200zM680 240v-40h40v40h-40zM320 240h40v-40h40v-40h-40v-40h40v-40h-80v160zM80 200h120v-120h-120v120zM440 200h40v-40h40
v40h40v-40h40v-40h40v-40h-40v-40h-80v-40h-40v40h-80v40h80v40h-40v80zM520 120v-40h40v40h-40zM680 80h40v-40h-40v40zM320 40h80v-40h-80v40zM600 40h40v-40h-40v40zM720 40h80v-40h-80v40z" />
    <glyph glyph-name="period" unicode="." 
d="M0 840h280v-280h-280v280zM320 840h40v-40h-40v40zM400 840h40v-40h40v-80h40v-80h-40v40h-40v80h-40v80zM480 840h40v-40h-40v40zM560 840h280v-280h-280v280zM40 800v-200h200v200h-200zM600 800v-200h200v200h-200zM80 760h120v-120h-120v120zM640 760h120v-120h-120
v120zM320 720h80v-40h-40v-120h40v-80h40v80h40v40h40v-80h-40v-40h40v-40h-40v-40h-40v40h-80v40h-40v-40h-40v40h-40v40h80v200zM440 640h40v-40h-40v40zM400 600h40v-40h-40v40zM0 520h40v-40h-40v40zM160 520h40v-40h-40v40zM520 520h200v-80h40v-160h-40v120h-40v-40
h-40v40h-40v-120h-40v-40h-40v-40h-40v-40h40v-40h-40v-40h-40v40h-40v-40h-40v80h80v80h40v120h40v40h40v40h40v40h-80v40zM800 520h40v-80h-80v40h40v40zM640 480v-40h40v40h-40zM40 480h120v-40h-120v40zM200 480h40v-40h-40v40zM240 440h40v-40h-40v40zM320 440h40v-40
h-40v40zM0 400h160v-40h40v40h40v-40h40v40h40v-40h40v40h80v-160h-120v80h-200v40h-120v40zM800 360h40v-120h-80v40h40v80zM360 320v-40h40v40h-40zM0 280h280v-280h-280v280zM40 240v-200h200v200h-200zM600 240h40v-40h40v40h40v-40h120v-80h-80v40h-40v-40h40v-80h40
v40h40v-80h-120v80h-40v-40h-40v40h-40v-80h-120v40h40v40h40v40h40v40h-40v40h40v40zM80 200h120v-120h-120v120zM320 200h40v-40h-40v40zM640 160v-40h40v40h-40zM320 40h80v-40h-80v40z" />
    <glyph glyph-name="slash" unicode="/" 
d="M0 840h280v-280h-280v280zM320 840h40v-40h-40v40zM400 840h80v-40h-80v40zM560 840h280v-280h-280v280zM40 800v-200h200v200h-200zM600 800v-200h200v200h-200zM360 800h40v-40h-40v40zM480 800h40v-80h-40v80zM80 760h120v-120h-120v120zM640 760h120v-120h-120v120z
M320 720h160v-40h-40v-40h40v-40h-40v-40h40v40h40v-80h-40v-40h40v-40h-40v-40h-40v-120h-40v-80h-40v40h-40v80h40v40h-40v40h80v40h40v40h-40v40h-40v-80h-80v40h-40v40h80v200zM480 680h40v-40h-40v40zM360 600v-40h40v40h-40zM0 520h40v-80h-40v80zM160 520h40v-40h40
v-40h-80v-80h40v-40h-80v40h-40v40h-40v40h40v40h80v40zM520 520h200v-80h40v-160h-40v120h-40v-40h-40v40h-40v-120h-40v-40h-40v-40h-40v-40h40v-40h-40v-40h-40v80h-40v40h40v40h40v120h40v40h40v40h40v40h-80v40zM800 520h40v-80h-80v40h40v40zM640 480v-40h40v40h-40z
M240 440h40v-40h-40v40zM0 400h40v-40h40v-40h-80v80zM200 400h40v-40h-40v40zM800 400h40v-160h-80v40h40v120zM240 360h40v-40h-40v40zM0 280h280v-280h-280v280zM40 240v-200h200v200h-200zM600 240h40v-40h40v40h40v-40h120v-80h-80v40h-40v-40h40v-80h40v40h40v-80
h-120v80h-40v-40h-40v40h-40v-80h-120v40h40v40h40v40h40v40h-40v40h40v40zM80 200h120v-120h-120v120zM320 200h40v-40h-40v40zM640 160v-40h40v40h-40zM360 160h40v-80h40v-80h-40v40h-40v120zM320 40h40v-40h-40v40z" />
    <glyph glyph-name="zero" unicode="0" 
d="M0 840h280v-280h-280v280zM320 840h200v-80h-40v40h-40v-160h40v-40h-40v-40h-40v40h-40v-80h80v40h40v40h40v-80h-40v-40h40v-40h-40v-40h-80v80h-80v-40h-40v40h-40v40h80v200h80v40h-40v40h-40v40zM560 840h280v-280h-280v280zM40 800v-200h200v200h-200zM600 800
v-200h200v200h-200zM80 760h120v-120h-120v120zM640 760h120v-120h-120v120zM360 680v-40h40v40h-40zM480 680h40v-40h-40v40zM0 520h40v-40h-40v40zM160 520h40v-80h-40v80zM520 520h200v-80h40v-80h80v-80h-40v-40h-40v40h-40v120h-40v-40h-40v40h-40v-120h-40v-40h-40
v-40h-40v-40h40v-40h-40v-40h-40v40h-40v80h40v40h40v120h40v40h40v40h40v40h-80v40zM800 520h40v-80h-80v40h40v40zM640 480v-40h40v40h-40zM80 480h40v-40h-40v40zM0 440h40v-40h80v-40h-80v-40h-40v120zM120 440h40v-40h-40v40zM240 440h40v-40h-40v40zM320 440h40v-40
h40v-80h-40v-40h40v-40h-80v80h-80v40h80v80zM160 400h40v-40h-40v40zM0 280h280v-280h-280v280zM40 240v-200h200v200h-200zM600 240h40v-40h40v40h40v-40h120v-80h-80v40h-40v-40h40v-40h40v-40h40v-40h-120v80h-40v-40h-40v40h-40v-80h-120v40h40v40h40v40h40v40h-40v40
h40v40zM80 200h120v-120h-120v120zM320 200h40v-40h-40v40zM640 160v-40h40v40h-40zM360 120h40v-120h-80v40h40v80z" />
    <glyph glyph-name="one" unicode="1" 
d="M0 840h280v-280h-280v280zM320 840h120v-40h-40v-40h-80v80zM560 840h280v-280h-280v280zM40 800v-200h200v200h-200zM600 800v-200h200v200h-200zM440 800h40v-40h40v-80h-40v40h-80v40h40v40zM80 760h120v-120h-120v120zM640 760h120v-120h-120v120zM320 720h80v-80h40
v40h40v-40h40v-160h40v40h40v-80h-120v-80h-80v-40h80v-40h40v-40h-80v40h-80v-40h40v-40h-80v120h-80v40h40v40h40v-40h40v40h80v80h-40v40h40v40h40v40h-40v-40h-40v40h-40v80h-40v40zM320 600h40v-40h40v-40h-80v80zM0 520h40v-120h40v-40h-80v160zM80 520h80v-40h40v40
h120v-40h40v-80h-40v40h-40v40h-40v-40h-40v-40h-40v-80h-80v40h40v40h-40v40h40v40h-40v40zM680 520h40v-80h40v-40h40v-80h-80v40h-80v-40h-40v40h-40v40h120v120zM760 520h80v-40h-80v40zM240 440h40v-40h-40v40zM800 440h40v-40h-40v40zM200 400h40v-40h-40v40zM480 360
h40v-40h-40v40zM560 320h40v-40h-40v40zM680 320h40v-80h-40v80zM800 320h40v-40h-40v40zM0 280h280v-280h-280v280zM600 280h40v-40h40v-80h120v-40h-160v-80h-40v40h-40v80h-80v40h120v80zM40 240v-200h200v200h-200zM720 240h40v-40h-40v40zM80 200h120v-120h-120v120z
M400 200h40v-40h-40v40zM800 200h40v-40h-40v40zM320 160h40v-40h80v-80h-40v40h-80v80zM440 160h40v-40h-40v40zM480 120h40v-40h-40v40zM520 80h40v-80h-40v80zM720 80h120v-40h-40v-40h-40v40h-40v40zM320 40h40v-40h-40v40zM640 40h40v-40h-40v40z" />
    <glyph glyph-name="two" unicode="2" 
d="M0 840h280v-280h-280v280zM320 840h40v-40h-40v40zM440 840h40v-40h40v-40h-160v40h80v40zM560 840h280v-280h-280v280zM40 800v-200h200v200h-200zM600 800v-200h200v200h-200zM80 760h120v-120h-120v120zM640 760h120v-120h-120v120zM320 720h200v-80h-40v40h-80v-40
h80v-40h-40v-40h40v40h40v-80h-40v-40h40v-40h-40v-40h-40v120h-40v80h-40v-160h-40v40h-80v40h80v200zM0 520h40v-40h-40v40zM160 520h40v-120h-40v-40h-40v80h40v80zM520 520h200v-80h40v-80h40v-40h40v-40h-40v-40h-40v40h-40v120h-40v-40h-40v40h-40v-120h-40v-40h-40
v-40h-40v-40h40v-40h-40v-40h-40v40h-40v40h-80v40h40v40h-40v80h40v-40h40v-80h40v40h40v120h40v40h40v40h40v40h-80v40zM800 520h40v-80h-80v40h40v40zM640 480v-40h40v40h-40zM40 480h80v-40h-80v40zM0 440h40v-80h-40v80zM240 440h80v-40h-80v40zM320 400h40v-40h-40v40
zM40 360h40v-40h-40v40zM160 360h40v-40h-40v40zM240 360h40v-40h-40v40zM400 360h40v-80h-40v80zM0 280h280v-280h-280v280zM40 240v-200h200v200h-200zM600 240h40v-40h40v40h40v-40h120v-80h-80v40h-40v-40h40v-40h40v-40h40v-40h-120v80h-40v-40h-40v40h-40v-80h-120v40
h40v40h40v40h40v40h-40v40h40v40zM80 200h120v-120h-120v120zM640 160v-40h40v40h-40zM360 120h40v-40h-40v40zM320 40h120v-40h-120v40z" />
    <glyph glyph-name="three" unicode="3" 
d="M0 840h280v-280h-280v280zM320 840h80v-120h40v-80h-40v40h-40v-40h40v-40h-40v-80h80v40h40v40h40v-80h-40v-40h40v-40h-40v-40h-40v40h-40v-40h40v-80h-40v-80h-80v80h-80v40h120v40h-120v40h40v40h-40v40h80v200h40v80h-40v40zM480 840h40v-200h-40v120h-40v40h40v40z
M560 840h280v-280h-280v280zM40 800v-200h200v200h-200zM600 800v-200h200v200h-200zM80 760h120v-120h-120v120zM640 760h120v-120h-120v120zM440 640h40v-40h-40v40zM400 600h40v-40h-40v40zM0 520h40v-120h120v120h40v-40h40v-40h-40v-120h-40v40h-120v-40h-40v200z
M520 520h200v-80h40v-120h80v-40h-40v-40h-40v40h-40v120h-40v-40h-40v40h-40v-120h-40v-40h-40v-40h-40v-40h40v-40h-40v-40h-40v40h-40v40h-80v40h80v40h80v120h40v40h40v40h40v40h-80v40zM800 520h40v-80h-80v40h40v40zM640 480v-40h40v40h-40zM80 480h40v-40h-40v40z
M0 280h280v-280h-280v280zM40 240v-200h200v200h-200zM600 240h40v-40h40v40h40v-40h120v-80h-80v40h-40v-40h40v-40h40v-40h40v-40h-120v80h-40v-40h-40v40h-40v-80h-120v40h40v40h40v40h40v40h-40v40h40v40zM80 200h120v-120h-120v120zM640 160v-40h40v40h-40zM360 120h40
v-40h-40v40zM320 40h40v-40h-40v40z" />
    <glyph glyph-name="four" unicode="4" 
d="M0 840h280v-280h-280v280zM360 840h80v-40h-80v40zM480 840h40v-120h-120v40h40v40h40v40zM560 840h280v-280h-280v280zM40 800v-200h200v200h-200zM600 800v-200h200v200h-200zM80 760h120v-120h-120v120zM320 760h40v-40h40v-40h-40v-120h40v40h40v-80h-40v-40h-40v40
h-40v240zM640 760h120v-120h-120v120zM480 680h40v-40h-40v40zM440 640h40v-40h-40v40zM480 600h40v-40h-40v40zM0 520h40v-40h40v40h200v-40h-80v-40h-40v40h-40v-40h-40v-40h40v40h40v-80h-40v-40h-120v40h40v40h-40v120zM440 520h40v-40h80v40h200v-40h-40v-40h-40v40
h-80v-40h40v-40h-40v-40h-80v-80h-40v80h-40v40h40v40h-80v40h40v40zM280 480h40v-80h40v-40h40v-40h-40v-40h-40v80h-40v40h-40v40h40v40zM520 440v-40h40v40h-40zM360 440h40v-40h-40v40zM200 400h40v-40h40v-40h-80v80zM680 400h40v-40h-40v40zM600 360h40v-80h-40v80z
M720 360h40v-40h40v-80h-40v-80h-40v-40h-40v40h-40v40h-40v40h40v40h80v80zM400 320h40v-40h-40v40zM0 280h280v-280h-280v280zM360 280h40v-160h40v-40h40v40h-40v80h40v-40h40v40h40v-40h40v-40h40v-40h-40v-40h-80v-40h-40v40h-40v-40h-40v80h-80v160h40v40zM440 280h40
v-40h-40v40zM520 280h40v-40h-40v40zM40 240v-200h200v200h-200zM680 240v-40h40v40h-40zM80 200h120v-120h-120v120zM520 120v-40h40v40h-40zM680 80h40v-40h-40v40zM760 80h40v-40h-40v40zM320 40h40v-40h-40v40zM600 40h40v-40h-40v40zM720 40h40v-40h-40v40z" />
    <glyph glyph-name="five" unicode="5" 
d="M0 840h280v-280h-280v280zM320 840h40v-40h40v40h80v-40h-40v-40h-120v80zM560 840h280v-280h-280v280zM40 800v-200h200v200h-200zM600 800v-200h200v200h-200zM80 760h120v-120h-120v120zM440 760h80v-40h-40v-80h40v-160h40v40h40v-80h-120v-80h-40v200h40v40h-40v40
h-40v40h40v80zM640 760h120v-120h-120v120zM320 720h80v-40h-80v40zM360 640h40v-40h-40v40zM320 600h40v-80h-40v80zM400 600h40v-40h-40v40zM0 520h40v-40h-40v40zM80 520h80v-40h-40v-40h40v-40h-80v-40h-80v40h40v40h40v80zM200 520h120v-40h-80v-40h80v-40h-80v-40h80
v-40h-120v120h-40v40h40v40zM360 520h40v-120h-40v120zM680 520h40v-80h40v-40h40v-80h40v-40h-80v40h-40v40h-80v-40h-40v40h-40v40h120v120zM760 520h80v-40h-80v40zM800 440h40v-40h-40v40zM80 360h40v-40h-40v40zM480 360h40v-40h-40v40zM320 320h40v-120h-40v120z
M440 320h40v-40h40v-40h-80v-40h-40v80h40v40zM560 320h40v-40h-40v40zM680 320h40v-80h-40v80zM0 280h280v-280h-280v280zM600 280h40v-40h40v-80h120v-40h-160v-80h-40v40h-40v80h-80v40h120v80zM40 240v-200h200v200h-200zM720 240h40v-40h-40v40zM80 200h120v-120h-120
v120zM800 200h40v-40h-40v40zM320 160h40v-40h40v40h80v-40h-40v-120h-40v40h-40v40h-40v80zM480 120h40v-40h-40v40zM520 80h40v-80h-40v80zM720 80h120v-40h-40v-40h-40v40h-40v40zM320 40h40v-40h-40v40zM640 40h40v-40h-40v40z" />
    <glyph glyph-name="six" unicode="6" 
d="M0 840h280v-280h-280v280zM320 840h80v-80h-40v40h-40v40zM560 840h280v-280h-280v280zM40 800v-200h200v200h-200zM600 800v-200h200v200h-200zM480 800h40v-40h-40v40zM80 760h120v-120h-120v120zM400 760h40v-120h-40v40h-40v-40h40v-40h-40v-40h40v40h40v-40h40v40
h40v-80h-40v-40h40v-40h-40v-40h-40v80h-40v-80h40v-80h-40v-40h40v-40h40v120h40v40h40v40h40v40h-80v40h200v-80h40v-80h40v-40h-40v-40h-40v120h-40v-40h-40v40h-40v-120h-40v-40h-40v-40h-40v-40h40v-40h-40v-40h-40v120h-40v40h-80v120h-40v40h40v40h40v40h-40v-40h-40
v40h-40v40h80v200h80v40zM640 760h120v-120h-120v120zM480 680h40v-40h-40v40zM440 640h40v-40h-40v40zM0 520h40v-40h40v-80h-40v40h-40v80zM160 520h40v-80h-40v-40h-40v80h40v40zM800 520h40v-80h-80v40h40v40zM640 480v-40h40v40h-40zM200 440h80v-40h-80v40zM0 400h40
v-40h-40v40zM40 360h40v-40h-40v40zM120 360h160v-40h-160v40zM800 320h40v-40h-40v40zM0 280h280v-280h-280v280zM760 280h40v-40h-40v40zM40 240v-200h200v200h-200zM600 240h40v-40h40v40h40v-40h120v-80h-80v40h-40v-40h40v-40h40v-40h40v-40h-120v80h-40v-40h-40v40
h-40v-80h-120v40h40v40h40v40h40v40h-40v40h40v40zM80 200h120v-120h-120v120zM320 200h80v-40h-80v40zM640 160v-40h40v40h-40zM360 120h40v-120h-80v40h40v80z" />
    <glyph glyph-name="seven" unicode="7" 
d="M0 840h280v-280h-280v280zM320 840h40v-40h-40v40zM440 840h80v-120h-40v80h-40v40zM560 840h280v-280h-280v280zM40 800v-200h200v200h-200zM600 800v-200h200v200h-200zM360 800h80v-80h40v-40h-80v-40h80v-40h-40v-40h-40v40h-40v-40h40v-40h-40v-40h-120v40h80v200
h40v80zM80 760h120v-120h-120v120zM640 760h120v-120h-120v120zM480 680h40v-40h-40v40zM480 600h40v-80h-40v-40h40v-40h-40v-40h-40v40h-40v40h40v80h40v40zM0 520h40v-40h-40v40zM160 520h40v-40h40v-40h40v-40h-80v40h-80v40h40v40zM520 520h200v-80h40v-160h-40v120
h-40v-40h-40v40h-40v-120h-40v-40h-40v-40h-40v-40h40v-40h-40v-40h-40v160h40v120h40v40h40v40h40v40h-80v40zM800 520h40v-80h-80v40h40v40zM640 480v-40h40v40h-40zM40 440h40v-40h40v-40h-80v-40h-40v80h40v40zM160 400h40v-40h80v40h40v-80h-200v40h40v40zM400 360h40
v-120h-40v-80h-80v40h40v40h-40v80h40v-40h40v80zM800 320h40v-40h-40v40zM0 280h280v-280h-280v280zM760 280h40v-40h-40v40zM40 240v-200h200v200h-200zM600 240h40v-40h40v40h40v-40h120v-80h-80v40h-40v-40h40v-40h40v-40h40v-40h-120v80h-40v-40h-40v40h-40v-80h-120
v40h40v40h40v40h40v40h-40v40h40v40zM80 200h120v-120h-120v120zM640 160v-40h40v40h-40zM360 120h40v-80h-40v80zM320 40h40v-40h-40v40zM400 40h40v-40h-40v40z" />
    <glyph glyph-name="eight" unicode="8" 
d="M0 840h280v-280h-280v280zM360 840h40v-40h120v-80h-40v40h-120v80zM560 840h280v-280h-280v280zM40 800v-200h200v200h-200zM600 800v-200h200v200h-200zM80 760h120v-120h-120v120zM320 760h40v-40h40v-40h-40v-40h120v-40h-40v-80h-40v80h-40v-80h-40v240zM640 760
h120v-120h-120v120zM440 720h40v-40h-40v40zM480 680h40v-40h-40v40zM480 600h40v-40h-40v40zM0 520h40v-80h-40v80zM80 520h200v-40h-160v-40h-40v80zM360 520h40v-80h40v-40h-40v-40h-40v40h-40v40h40v80zM440 520h40v-40h80v40h200v-40h-40v-40h-40v40h-80v-40h40v-40
h-40v-40h-80v-80h-40v80h-40v40h40v40h-40v80zM280 480h40v-40h-40v40zM520 440v-40h40v40h-40zM40 440h40v-120h-80v40h40v80zM160 440h40v-40h40v-40h-80v80zM240 440h40v-40h-40v40zM680 400h40v-40h-40v40zM120 360h40v-40h-40v40zM240 360h40v-40h-40v40zM400 360h40
v-80h40v-40h-40v-40h40v-40h40v40h40v-40h40v-40h40v-40h-40v-40h-80v-40h-40v40h-80v-40h-80v40h40v40h40v40h-40v-40h-40v160h40v-80h40v80h-40v40h40v80zM600 360h40v-80h-40v80zM720 360h40v-80h40v-40h-40v-80h-40v-40h-40v40h-40v40h-40v40h40v40h80v80zM320 320h40
v-40h-40v40zM800 320h40v-40h-40v40zM0 280h280v-280h-280v280zM520 280h40v-40h-40v40zM40 240v-200h200v200h-200zM680 240v-40h40v40h-40zM80 200h120v-120h-120v120zM440 120v-40h40v40h-40zM520 120v-40h40v40h-40zM680 80h40v-40h-40v40zM760 80h40v-40h-40v40z
M600 40h40v-40h-40v40zM720 40h40v-40h-40v40z" />
    <glyph glyph-name="nine" unicode="9" 
d="M0 840h280v-280h-280v280zM320 840h80v-40h-80v40zM440 840h80v-200h-40v40h-40v-40h-40v40h-40v-160h40v80h40v-40h40v40h40v-80h-40v-40h40v-40h-40v-40h-40v40h-160v40h-40v40h80v200h40v40h80v80zM560 840h280v-280h-280v280zM40 800v-200h200v200h-200zM600 800
v-200h200v200h-200zM80 760h120v-120h-120v120zM640 760h120v-120h-120v120zM440 640h40v-40h-40v40zM0 520h40v-40h-40v40zM160 520h40v-40h-40v40zM520 520h200v-80h40v-120h40v-80h-40v40h-40v120h-40v-40h-40v40h-40v-120h-40v-40h-40v-40h-40v-40h40v-40h-40v-40h-40
v40h-40v40h-80v40h40v40h-40v80h40v-40h40v-40h80v120h40v40h40v40h40v40h-80v40zM800 520h40v-80h-80v40h40v40zM640 480v-40h40v40h-40zM120 480h40v-80h-40v80zM200 480h40v-40h40v-40h-80v80zM0 440h80v-40h-40v-40h-40v80zM80 400h40v-80h-80v40h40v40zM160 400h40v-40
h-40v40zM320 400h40v-40h-40v40zM240 360h40v-40h-40v40zM400 360h40v-40h-40v40zM800 360h40v-40h-40v40zM0 280h280v-280h-280v280zM40 240v-200h200v200h-200zM600 240h40v-40h40v40h40v-40h120v-80h-80v40h-40v-40h40v-40h40v-40h40v-40h-120v80h-40v-40h-40v40h-40v-80
h-120v40h40v40h40v40h40v40h-40v40h40v40zM80 200h120v-120h-120v120zM640 160v-40h40v40h-40zM360 80h40v-40h40v-40h-120v40h40v40z" />
    <glyph glyph-name="colon" unicode=":" 
d="M0 840h280v-280h-280v280zM320 840h40v-40h-40v40zM440 840h80v-40h-80v40zM560 840h280v-280h-280v280zM40 800v-200h200v200h-200zM600 800v-200h200v200h-200zM80 760h120v-120h-120v120zM360 760h160v-40h-40v-40h-40v40h-40v-40h-40v-120h40v-80h-40v-40h40v40h40
v80h40v40h40v-80h-40v-40h40v-40h-40v-40h-80v-80h40v-80h40v120h40v40h40v40h40v40h-80v40h200v-80h40v-80h40v-40h-40v-40h-40v120h-40v-40h-40v40h-40v-120h-40v-40h-40v-40h-40v-40h40v-40h-40v-40h-40v40h-40v-80h-40v120h-40v40h80v-40h40v40h-40v40h-80v80h-120v80
h40v-40h40v40h-40v40h40v40h-40v40h80v200h40v40zM640 760h120v-120h-120v120zM480 680h40v-40h-40v40zM400 640h80v-40h-40v-40h-40v80zM0 520h40v-40h120v-40h40v-40h-80v40h-120v80zM160 520h40v-40h-40v40zM800 520h40v-80h-80v40h40v40zM640 480v-40h40v40h-40zM0 400
h120v-40h-120v40zM120 360h40v-40h-40v40zM800 320h40v-80h-80v40h40v40zM0 280h280v-280h-280v280zM40 240v-200h200v200h-200zM600 240h40v-40h40v40h40v-40h120v-80h-80v40h-40v-40h40v-80h40v40h40v-80h-120v80h-40v-40h-40v40h-40v-80h-120v40h40v40h40v40h40v40h-40
v40h40v40zM80 200h120v-120h-120v120zM640 160v-40h40v40h-40zM320 40h40v-40h-40v40z" />
    <glyph glyph-name="semicolon" unicode=";" 
d="M0 840h280v-280h-280v280zM360 840h120v-40h-80v-40h-40v80zM560 840h280v-280h-280v280zM40 800v-200h200v200h-200zM600 800v-200h200v200h-200zM480 800h40v-40h-40v40zM80 760h120v-120h-120v120zM320 760h40v-120h40v-40h-40v-40h40v40h40v-80h40v-40h80v40h200v-40
h-40v-40h-40v40h-80v-40h40v-40h-40v-40h-80v-80h-40v80h-40v40h40v40h-80v80h-80v240zM400 760h80v-40h40v-80h-40v40h-80v80zM640 760h120v-120h-120v120zM440 640h40v-40h-40v40zM480 600h40v-40h-40v40zM0 520h40v-40h-40v40zM80 520h200v-40h-40v-40h-40v40h-120v40z
M40 480h40v-40h-40v40zM320 480h40v-80h-40v-40h40v-80h-40v40h-120v40h80v40h-40v40h80v40zM520 440v-40h40v40h-40zM80 440h120v-80h-40v-40h-80v40h40v40h-40v40zM0 400h40v-40h-40v40zM360 400h40v-40h-40v40zM680 400h40v-40h-40v40zM760 400h80v-120h-80v-40h40v-40
h-40v-40h-40v-40h-40v40h-40v40h-40v40h40v40h80v80h40v-40h40v40h-40v40zM600 360h40v-80h-40v80zM400 320h40v-40h40v-40h-80v80zM0 280h280v-280h-280v280zM520 280h40v-40h-40v40zM40 240v-200h200v200h-200zM680 240v-40h40v40h-40zM320 240h80v-80h-40v-40h40v-40h-80
v160zM80 200h120v-120h-120v120zM440 200h40v-40h40v40h40v-40h40v-40h40v-40h-40v-40h-80v-40h-40v40h-40v40h40v40h-40v80zM520 120v-40h40v40h-40zM680 80h40v-40h-40v40zM320 40h120v-40h-120v40zM600 40h40v-40h-40v40zM720 40h80v-40h-80v40z" />
    <glyph glyph-name="semicolon" unicode="&#x37e;" 
d="M0 840h280v-280h-280v280zM360 840h120v-40h-80v-40h-40v80zM560 840h280v-280h-280v280zM40 800v-200h200v200h-200zM600 800v-200h200v200h-200zM480 800h40v-40h-40v40zM80 760h120v-120h-120v120zM320 760h40v-120h40v-40h-40v-40h40v40h40v-80h40v-40h80v40h200v-40
h-40v-40h-40v40h-80v-40h40v-40h-40v-40h-80v-80h-40v80h-40v40h40v40h-80v80h-80v240zM400 760h80v-40h40v-80h-40v40h-80v80zM640 760h120v-120h-120v120zM440 640h40v-40h-40v40zM480 600h40v-40h-40v40zM0 520h40v-40h-40v40zM80 520h200v-40h-40v-40h-40v40h-120v40z
M40 480h40v-40h-40v40zM320 480h40v-80h-40v-40h40v-80h-40v40h-120v40h80v40h-40v40h80v40zM520 440v-40h40v40h-40zM80 440h120v-80h-40v-40h-80v40h40v40h-40v40zM0 400h40v-40h-40v40zM360 400h40v-40h-40v40zM680 400h40v-40h-40v40zM760 400h80v-120h-80v-40h40v-40
h-40v-40h-40v-40h-40v40h-40v40h-40v40h40v40h80v80h40v-40h40v40h-40v40zM600 360h40v-80h-40v80zM400 320h40v-40h40v-40h-80v80zM0 280h280v-280h-280v280zM520 280h40v-40h-40v40zM40 240v-200h200v200h-200zM680 240v-40h40v40h-40zM320 240h80v-80h-40v-40h40v-40h-80
v160zM80 200h120v-120h-120v120zM440 200h40v-40h40v40h40v-40h40v-40h40v-40h-40v-40h-80v-40h-40v40h-40v40h40v40h-40v80zM520 120v-40h40v40h-40zM680 80h40v-40h-40v40zM320 40h120v-40h-120v40zM600 40h40v-40h-40v40zM720 40h80v-40h-80v40z" />
    <glyph glyph-name="less" unicode="&#x3c;" 
 />
    <glyph glyph-name="equal" unicode="=" 
 />
    <glyph glyph-name="greater" unicode="&#x3e;" 
 />
    <glyph glyph-name="question" unicode="?" 
 />
    <glyph glyph-name="at" unicode="@" 
 />
    <glyph glyph-name="A" unicode="A" 
d="M0 840h280v-280h-280v280zM320 840h80v-80h-80v80zM440 840h40v-40h-40v40zM560 840h280v-280h-280v280zM40 800v-200h200v200h-200zM600 800v-200h200v200h-200zM480 800h40v-80h-80v-40h40v-40h40v-160h40v40h40v-80h-120v-80h-40v80h-40v-40h-40v80h80v80h40v40h-40
v40h-40v120h80v40zM80 760h120v-120h-120v120zM640 760h120v-120h-120v120zM320 720h40v-40h-40v40zM360 640h40v-40h-40v40zM320 600h40v-80h-40v80zM400 600h40v-40h-40v40zM0 520h40v-40h40v-40h-40v-40h-40v120zM80 520h80v-40h40v-80h-40v-40h40v40h40v-40h80v-40h-320
v40h40v40h40v-40h40v120h-40v40zM200 520h120v-40h-120v40zM680 520h40v-80h40v-40h40v-80h40v-80h-80v80h-40v40h-80v-40h-40v40h-40v40h120v120zM760 520h80v-40h-80v40zM240 440h80v-40h-80v40zM800 440h40v-40h-40v40zM360 360h80v-40h-80v40zM480 360h40v-40h-40v40z
M320 320h40v-40h80v40h40v-40h40v-40h-120v-40h40v-40h-40v-80h40v-40h-40v-40h-80v40h40v40h-40v80h40v40h-40v120zM560 320h40v-40h-40v40zM680 320h40v-80h-40v80zM0 280h280v-280h-280v280zM600 280h40v-40h40v-80h120v-40h-160v-80h-40v40h-40v80h-80v40h120v80z
M40 240v-200h200v200h-200zM720 240h40v-40h-40v40zM80 200h120v-120h-120v120zM800 200h40v-40h-40v40zM440 160h40v-40h-40v40zM480 120h40v-40h-40v40zM520 80h40v-80h-40v80zM720 80h40v-40h-40v40zM640 40h40v-40h-40v40zM760 40h40v-40h-40v40z" />
    <glyph glyph-name="B" unicode="B" 
d="M0 840h280v-280h-280v280zM320 840h40v-40h-40v40zM480 840h40v-80h-40v80zM560 840h280v-280h-280v280zM40 800v-200h200v200h-200zM600 800v-200h200v200h-200zM400 800h40v-40h40v-80h-80v40h-40v40h40v40zM80 760h120v-120h-120v120zM640 760h120v-120h-120v120z
M320 720h40v-40h40v-40h-40v-80h40v-120h-40v40h-40v-80h-80v40h40v40h-40v40h80v200zM480 680h40v-40h-40v40zM440 640h40v-40h-40v40zM400 600h40v-40h-40v40zM480 600h40v-80h-40v-40h40v-40h-40v-40h-40v160h40v40zM0 520h40v-40h-40v40zM160 520h40v-40h-40v40z
M520 520h200v-80h40v-160h-40v120h-40v-40h-40v40h-40v-120h-40v-40h-40v-40h-40v-40h40v-40h-40v-40h-40v-40h-80v120h-40v40h80v-80h40v80h-40v40h80v120h40v40h40v40h40v40h-80v40zM800 520h40v-80h-80v40h40v40zM640 480v-40h40v40h-40zM40 480h80v-40h-40v-120h-40v80
h-40v40h40v40zM120 440h40v-40h-40v40zM320 400h80v-40h-80v40zM800 400h40v-160h-40v160zM160 360h40v-40h-40v40zM240 360h80v-40h-80v40zM400 360h40v-40h-40v40zM320 320h80v-40h-40v-40h-40v80zM0 280h280v-280h-280v280zM40 240v-200h200v200h-200zM600 240h40v-40h40
v40h40v-40h120v-80h-80v40h-40v-40h40v-80h40v40h40v-80h-120v80h-40v-40h-40v40h-40v-80h-120v40h40v40h40v40h40v40h-40v40h40v40zM80 200h120v-120h-120v120zM640 160v-40h40v40h-40zM320 40h40v-40h-40v40z" />
    <glyph glyph-name="C" unicode="C" 
d="M0 840h280v-280h-280v280zM560 840h280v-280h-280v280zM40 800v-200h200v200h-200zM600 800v-200h200v200h-200zM440 800h80v-80h-40v40h-40v40zM80 760h120v-120h-120v120zM360 760h40v-40h-40v40zM640 760h120v-120h-120v120zM400 720h80v-40h-40v-40h-40v80zM480 680
h40v-160h-160v40h40v40h40v-40h40v40h-40v40h40v40zM320 640h40v-80h-40v80zM0 520h40v-80h-40v80zM120 520h40v-40h40v-40h-80v80zM200 520h80v-40h-80v40zM320 520h40v-80h-40v-40h-80v-40h120v-80h-40v40h-160v40h-80v-40h-80v40h40v80h40v-40h120v40h80v40h40v40z
M520 520h40v-40h-40v40zM600 520h40v-40h-40v40zM400 480h40v-80h-40v80zM560 480h40v-40h-40v40zM720 480h80v-40h40v-80h-80v-40h-40v40h-40v40h80v40h-40v40zM480 440h80v-40h-80v40zM360 400h40v-40h-40v40zM440 400h40v-40h-40v40zM400 360h40v-40h40v-40h-40v-40h80
v40h40v-80h-80v-80h-40v-40h-40v120h-80v40h40v40h40v80zM480 360h40v-40h-40v40zM560 360h40v-40h-40v40zM640 360h40v-40h40v-40h-80v-40h80v-40h40v40h40v-40h40v-160h-40v80h-120v40h-120v40h40v120h40v40zM760 320h40v-40h-40v40zM0 280h280v-280h-280v280zM720 280h40
v-40h-40v40zM800 280h40v-40h-40v40zM40 240v-200h200v200h-200zM80 200h120v-120h-120v120zM320 160h40v-40h-40v40zM480 120h40v-40h-40v40zM640 120h40v-80h40v40h40v-80h-120v120zM360 80h40v-40h-40v40zM520 80h80v-40h-80v40zM320 40h40v-40h-40v40zM440 40h80v-40
h-80v40z" />
    <glyph glyph-name="D" unicode="D" 
d="M0 840h280v-280h-280v280zM320 840h200v-40h-160v-40h-40v80zM560 840h280v-280h-280v280zM40 800v-200h200v200h-200zM600 800v-200h200v200h-200zM80 760h120v-120h-120v120zM360 760h40v-40h-40v40zM480 760h40v-40h-40v40zM640 760h120v-120h-120v120zM320 720h40
v-40h-40v40zM360 680h40v-40h-40v40zM440 680h40v-40h40v-160h40v40h40v-80h-120v-80h-80v40h40v80h-40v-40h-40v80h40v80h40v-40h40v40h-40v80zM320 600h40v-80h-40v80zM0 520h40v-80h80v40h-40v40h80v-120h-160v120zM200 520h120v-40h-80v-40h-40v80zM680 520h40v-80h40
v-40h40v40h40v-200h-80v80h40v40h-40v-40h-40v40h-80v-40h-40v40h-40v40h120v120zM760 520h80v-40h-80v40zM240 440h40v-40h-40v40zM320 440h40v-40h-40v40zM200 400h40v-40h-40v40zM280 400h40v-40h-40v40zM80 360h80v-40h-80v40zM240 360h40v-40h-40v40zM320 360h80v-40
h-40v-40h40v-40h-40v-40h-40v160zM480 360h40v-40h-40v40zM440 320h40v-40h40v-40h-80v80zM560 320h40v-40h-40v40zM680 320h40v-80h-40v80zM0 280h280v-280h-280v280zM600 280h40v-40h40v-80h120v-40h-160v-80h-40v40h-40v80h-80v40h120v80zM40 240v-200h200v200h-200z
M400 240h40v-40h-40v40zM720 240h40v-40h-40v40zM80 200h120v-120h-120v120zM800 200h40v-40h-40v40zM320 160h160v-40h-80v-80h40v-40h-120v40h40v40h-40v80zM480 120h40v-40h-40v40zM520 80h40v-80h-40v80zM720 80h40v-40h-40v40zM640 40h40v-40h-40v40zM760 40h40v-40
h-40v40z" />
    <glyph glyph-name="E" unicode="E" 
d="M0 840h280v-280h-280v280zM400 840h120v-40h-120v40zM560 840h280v-280h-280v280zM40 800v-200h200v200h-200zM600 800v-200h200v200h-200zM80 760h120v-120h-120v120zM320 760h160v-40h40v-80h-40v40h-80v40h-40v-160h40v80h80v-40h-40v-80h-120v240zM640 760h120v-120
h-120v120zM480 600h40v-40h-40v40zM0 520h40v-80h-40v80zM80 520h200v-40h-80v-40h-80v40h-40v40zM440 520h40v-40h80v40h200v-40h-40v-40h-40v40h-80v-40h40v-40h-40v-40h-80v-80h-40v80h-80v80h40v-40h40v40h-40v80zM280 480h120v-40h-120v40zM520 440v-40h40v40h-40z
M80 440h40v-40h40v-80h-80v40h-80v40h80v40zM200 440h80v-40h-40v-40h40v-40h-80v120zM280 400h40v-40h-40v40zM680 400h40v-40h-40v40zM320 360h40v-40h80v-40h-120v80zM600 360h40v-80h-40v80zM720 360h120v-40h-40v-40h-40v-120h-40v-40h-40v40h-40v40h-40v40h40v40h80
v80zM0 280h280v-280h-280v280zM440 280h40v-40h-40v40zM520 280h40v-40h-40v40zM800 280h40v-40h-40v40zM40 240v-200h200v200h-200zM680 240v-40h40v40h-40zM320 240h40v-40h120v-40h40v40h40v-40h40v-40h40v-40h-40v-40h-80v-40h-40v40h-120v40h-40v160zM80 200h120v-120
h-120v120zM360 160v-40h40v-40h80v40h-80v40h-40zM520 120v-40h40v40h-40zM680 80h40v-40h-40v40zM800 80h40v-40h-40v40zM320 40h40v-40h-40v40zM600 40h40v-40h-40v40zM720 40h40v-40h-40v40z" />
    <glyph glyph-name="F" unicode="F" 
d="M0 840h280v-280h-280v280zM400 840h40v-40h80v-80h-40v40h-40v-40h-80v-40h80v-40h-40v-40h-40v-40h40v-40h80v-40h80v40h200v-40h-40v-40h-40v40h-80v-40h40v-40h-40v-40h-80v-80h-40v80h-80v40h80v40h-80v40h-40v40h-40v240h40v40h40v40zM560 840h280v-280h-280v280z
M40 800v-200h200v200h-200zM600 800v-200h200v200h-200zM80 760h120v-120h-120v120zM640 760h120v-120h-120v120zM440 720h40v-40h-40v40zM480 680h40v-40h-40v40zM440 640h40v-40h-40v40zM400 600h40v-40h-40v40zM480 600h40v-40h-40v40zM0 520h40v-40h-40v40zM80 520h200
v-40h-120v-160h-160v80h40v-40h40v40h40v80h-40v40zM40 480h40v-80h-40v80zM280 480h40v-40h-40v40zM520 440v-40h40v40h-40zM200 440h80v-40h-40v-40h-40v80zM320 440h40v-80h-40v80zM680 400h40v-40h-40v40zM800 400h40v-80h-40v-40h-40v-120h-40v-40h-40v40h-40v40h-40
v40h40v40h80v80h80v40zM240 360h80v-40h-80v40zM600 360h40v-80h-40v80zM320 320h40v-40h-40v40zM400 320h40v-40h40v-40h-80v80zM0 280h280v-280h-280v280zM520 280h40v-40h-40v40zM800 280h40v-40h-40v40zM40 240v-200h200v200h-200zM680 240v-40h40v40h-40zM320 240h80
v-80h-40v-40h40v-40h-80v160zM80 200h120v-120h-120v120zM440 200h40v-40h40v40h40v-40h40v-40h40v-40h-40v-40h-80v-40h-40v40h-40v40h40v40h-40v80zM520 120v-40h40v40h-40zM680 80h40v-40h-40v40zM800 80h40v-40h-40v40zM320 40h120v-40h-120v40zM600 40h40v-40h-40v40z
M720 40h40v-40h-40v40z" />
    <glyph glyph-name="G" unicode="G" 
d="M0 840h280v-280h-280v280zM320 840h120v-40h-120v40zM560 840h280v-280h-280v280zM40 800v-200h200v200h-200zM600 800v-200h200v200h-200zM440 800h40v-80h40v-80h-40v40h-40v120zM80 760h120v-120h-120v120zM640 760h120v-120h-120v120zM320 720h40v-40h40v-40h-40
v-120h40v-40h-40v-40h40v-40h40v-40h-80v40h-40v80h-80v40h80v200zM400 640h80v-40h-40v-40h-40v80zM480 600h40v-80h-40v-40h40v-40h-40v-40h-40v40h-40v40h40v80h40v40zM0 520h40v-40h-40v40zM160 520h40v-40h-40v40zM520 520h200v-80h40v-80h80v-40h-40v-40h-80v120h-40
v-40h-40v40h-40v-120h-40v-40h-40v-40h-40v-40h40v-40h-40v-40h-80v40h40v80h-80v40h120v120h40v40h40v40h40v40h-80v40zM800 520h40v-80h-80v40h40v40zM640 480v-40h40v40h-40zM80 480h40v-80h-40v80zM200 480h40v-40h-40v40zM160 440h40v-40h-40v40zM240 440h40v-40h-40
v40zM40 400h40v-40h40v40h40v-40h40v-40h-160v80zM240 360h120v-40h80v-40h-80v-40h-40v80h-80v40zM0 280h280v-280h-280v280zM800 280h40v-40h-40v40zM40 240v-200h200v200h-200zM600 240h40v-40h40v40h40v-40h120v-80h-80v40h-40v-40h40v-80h40v40h40v-80h-120v80h-40v-40
h-40v40h-40v-80h-120v40h40v40h40v40h40v40h-40v40h40v40zM80 200h120v-120h-120v120zM320 200h40v-40h-40v40zM640 160v-40h40v40h-40zM360 160h40v-40h-40v40zM360 80h40v-40h40v-40h-120v40h40v40z" />
    <glyph glyph-name="H" unicode="H" 
d="M0 840h280v-280h-280v280zM320 840h40v-40h40v40h120v-40h-40v-40h40v-80h-40v40h-40v40h-40v-40h-40v40h-40v80zM560 840h280v-280h-280v280zM40 800v-200h200v200h-200zM600 800v-200h200v200h-200zM80 760h120v-120h-120v120zM640 760h120v-120h-120v120zM320 720h40
v-40h-40v40zM400 680h80v-40h40v-160h40v40h40v-80h-120v-80h-80v40h40v160h40v40h-40v-40h-40v40h-40v40h40v40zM320 600h40v-40h40v-40h-80v80zM0 520h40v-80h-40v80zM80 520h80v-40h40v40h120v-40h40v-120h40v-40h-40v-40h40v40h80v-40h40v-40h-160v-40h-40v120h-160v40
h40v40h40v-40h80v80h-40v40h-40v-40h-120v40h-40v40zM680 520h40v-80h40v-40h40v40h40v-80h-80v-40h-40v40h-80v-40h-40v40h-40v40h120v120zM760 520h80v-40h-80v40zM40 440h80v-40h-40v-80h-80v40h40v80zM240 440h40v-40h-40v40zM480 360h40v-40h-40v40zM560 320h40v-40
h-40v40zM680 320h40v-80h-40v80zM0 280h280v-280h-280v280zM600 280h40v-40h40v-80h120v-40h-160v-80h-40v40h-40v80h-80v40h120v80zM760 280h80v-40h-80v40zM40 240v-200h200v200h-200zM720 240h40v-40h-40v40zM80 200h120v-120h-120v120zM400 200h40v-40h-40v40zM800 200
h40v-40h-40v40zM320 160h80v-40h-40v-40h-40v80zM440 160h40v-40h-40v40zM480 120h40v-40h-40v40zM360 80h40v-40h-40v40zM520 80h40v-80h-40v80zM720 80h40v-40h-40v40zM320 40h40v-40h-40v40zM400 40h40v-40h-40v40zM640 40h40v-40h-40v40zM760 40h40v-40h-40v40z" />
    <glyph glyph-name="I" unicode="I" 
d="M0 840h280v-280h-280v280zM360 840h160v-40h-40v-40h-40v-40h40v-40h-40v-40h-40v-40h-40v-80h-40v240h40v80zM560 840h280v-280h-280v280zM40 800v-200h200v200h-200zM600 800v-200h200v200h-200zM80 760h120v-120h-120v120zM640 760h120v-120h-120v120zM360 720v-40h40
v40h-40zM480 680h40v-40h-40v40zM440 640h40v-40h-40v40zM400 600h40v-40h-40v40zM480 600h40v-40h-40v40zM0 520h40v-160h40v-40h-80v200zM80 520h200v-40h-120v-120h-80v80h40v40h-40v40zM360 520h120v-40h80v40h200v-40h-40v-40h-40v40h-80v-40h40v-40h-40v-40h-80v-80
h-40v80h-80v80h40v-40h40v40h-40v40h-80v40zM520 440v-40h40v40h-40zM200 440h80v-40h-40v-40h-40v80zM320 400h40v-80h40v-40h-80v40h-80v40h80v40zM680 400h40v-40h-40v40zM160 360h40v-40h-40v40zM600 360h40v-80h-40v80zM720 360h80v-40h-40v-160h-40v-40h-40v40h-40v40
h-40v40h40v40h80v80zM800 320h40v-80h-40v80zM0 280h280v-280h-280v280zM400 280h80v-40h-40v-40h-40v80zM520 280h40v-40h-40v40zM40 240v-200h200v200h-200zM680 240v-40h40v40h-40zM320 240h40v-40h40v-40h-40v-80h-40v160zM80 200h120v-120h-120v120zM440 200h40v-40h40
v40h40v-40h40v-40h40v-40h-40v-40h-80v-40h-40v40h-80v-40h-80v40h40v40h120v40h-40v80zM520 120v-40h40v40h-40zM680 80h40v-40h-40v40zM800 80h40v-40h-40v40zM600 40h40v-40h-40v40zM720 40h40v-40h-40v40z" />
    <glyph glyph-name="J" unicode="J" 
d="M0 840h280v-280h-280v280zM320 840h40v-40h-40v40zM400 840h40v-40h-40v40zM560 840h280v-280h-280v280zM40 800v-200h200v200h-200zM600 800v-200h200v200h-200zM360 800h40v-80h-40v80zM480 800h40v-40h-40v40zM80 760h120v-120h-120v120zM640 760h120v-120h-120v120z
M320 720h40v-40h40v-40h80v-40h-40v-40h-40v40h-40v-80h40v-40h-80v-40h-40v40h-40v40h80v200zM400 720h40v-40h-40v40zM480 680h40v-40h-40v40zM480 600h40v-80h-40v-40h40v-40h-40v-40h-80v80h40v80h40v40zM0 520h40v-40h-40v40zM160 520h40v-160h80v40h40v-40h80v-80h-40
v-40h-40v80h-280v120h40v-40h80v120zM520 520h200v-80h40v-120h40v-40h-80v120h-40v-40h-40v40h-40v-120h-40v-40h-40v-40h-40v-40h40v-40h-40v-40h-40v-80h-120v40h80v80h-40v40h40v40h40v40h40v120h40v40h40v40h40v40h-80v40zM800 520h40v-80h-80v40h40v40zM640 480v-40
h40v40h-40zM80 480h40v-40h-40v40zM240 440h40v-40h-40v40zM320 440h40v-40h-40v40zM800 400h40v-80h-40v80zM0 280h280v-280h-280v280zM400 280h40v-40h-40v40zM800 280h40v-40h-40v40zM40 240v-200h200v200h-200zM360 240h40v-40h-40v40zM600 240h40v-40h40v40h40v-40h120
v-80h-80v40h-40v-40h40v-80h40v40h40v-80h-120v80h-40v-40h-40v40h-40v-80h-120v40h40v40h40v40h40v40h-40v40h40v40zM80 200h120v-120h-120v120zM320 200h40v-40h-40v40zM640 160v-40h40v40h-40z" />
    <glyph glyph-name="K" unicode="K" 
d="M0 840h280v-280h-280v280zM400 840h40v-40h40v40h40v-120h-80v-80h40v40h40v-160h-120v80h-40v-40h-40v80h80v80h-40v80h40v40zM560 840h280v-280h-280v280zM40 800v-200h200v200h-200zM600 800v-200h200v200h-200zM80 760h120v-120h-120v120zM640 760h120v-120h-120v120
zM440 600v-40h40v40h-40zM0 520h40v-40h40v-120h120v-40h-200v40h40v40h-40v120zM120 520h40v-80h120v-40h-40v-40h-40v40h-80v120zM200 520h80v-40h-80v40zM320 520h40v-40h40v-40h-40v-80h-40v-40h-80v40h40v40h40v40h-40v40h40v40zM520 520h40v-40h-40v40zM600 520h40
v-40h-40v40zM560 480h40v-40h-40v40zM720 480h80v-40h40v-80h-80v-40h-40v40h-40v40h80v40h-40v40zM480 440h80v-40h-80v40zM440 400h40v-40h-40v40zM360 360h40v-40h-40v40zM480 360h40v-40h-40v40zM560 360h40v-40h-40v40zM640 360h40v-40h40v-40h-80v-40h80v-40h40v40h40
v-40h40v-160h-40v80h-120v40h-120v40h40v120h40v40zM320 320h40v-40h-40v40zM400 320h80v-40h-80v40zM800 320h40v-80h-40v80zM0 280h280v-280h-280v280zM360 280h40v-40h-40v40zM520 280h40v-80h-80v-80h-40v120h80v40zM720 280h40v-40h-40v40zM40 240v-200h200v200h-200z
M320 240h40v-40h-40v40zM80 200h120v-120h-120v120zM360 200h40v-40h-40v40zM320 160h40v-40h-40v40zM360 120h80v-40h-80v40zM480 120h40v-40h-40v40zM640 120h40v-80h40v40h40v-80h-120v120zM520 80h80v-40h-80v40zM320 40h200v-40h-200v40z" />
    <glyph glyph-name="L" unicode="L" 
d="M0 840h280v-280h-280v280zM320 840h40v-40h-40v40zM440 840h40v-40h40v-160h-40v120h-40v-80h-40v80h-40v40h80v40zM560 840h280v-280h-280v280zM40 800v-200h200v200h-200zM600 800v-200h200v200h-200zM80 760h120v-120h-120v120zM640 760h120v-120h-120v120zM320 720
h40v-40h40v-80h-40v-80h40v-40h40v80h40v40h40v-80h-40v-40h40v-40h-40v-40h-40v40h-40v-40h-40v-40h40v40h40v-80h-80v-80h-40v80h-120v40h80v40h-40v40h40v40h-40v40h80v200zM440 640h40v-40h-40v40zM400 600h40v-40h-40v40zM0 520h40v-80h-40v80zM160 520h40v-40h40v-40
h-80v80zM520 520h200v-80h40v-80h40v-80h-80v120h-40v-40h-40v40h-40v-120h-40v-40h-40v-40h-40v-40h40v-40h-40v-40h-40v-80h-40v40h-40v40h40v40h-40v40h-40v40h40v40h40v40h40v-40h40v120h40v40h40v40h40v40h-80v40zM800 520h40v-80h-80v40h40v40zM640 480v-40h40v40h-40
zM80 480h40v-40h-40v40zM40 440h40v-40h40v-40h40v-40h-120v120zM120 440h40v-40h-40v40zM160 400h40v-40h-40v40zM800 400h40v-40h-40v40zM0 280h280v-280h-280v280zM800 280h40v-40h-40v40zM40 240v-200h200v200h-200zM600 240h40v-40h40v40h40v-40h120v-80h-80v40h-40
v-40h40v-80h40v40h40v-80h-120v80h-40v-40h-40v40h-40v-80h-120v40h40v40h40v40h40v40h-40v40h40v40zM80 200h120v-120h-120v120zM640 160v-40h40v40h-40zM320 40h40v-40h-40v40z" />
    <glyph glyph-name="M" unicode="M" 
d="M0 840h280v-280h-280v280zM320 840h80v-40h-80v40zM440 840h40v-40h-40v40zM560 840h280v-280h-280v280zM40 800v-200h200v200h-200zM600 800v-200h200v200h-200zM400 800h40v-40h80v-40h-40v-40h-40v40h-80v40h40v40zM80 760h120v-120h-120v120zM640 760h120v-120h-120
v120zM320 720h40v-40h40v-40h-40v-120h40v-40h40v80h40v40h40v-80h-40v-40h40v-40h-40v-40h-80v40h-40v40h-120v40h80v200zM480 680h40v-40h-40v40zM440 640h40v-40h-40v40zM400 600h40v-40h-40v40zM0 520h40v-80h-40v80zM160 520h40v-40h-40v40zM520 520h200v-80h40v-120
h40v-40h-80v120h-40v-40h-40v40h-40v-120h-40v-40h-40v-40h-40v-40h40v-40h-40v-40h-80v40h40v120h40v120h40v40h40v40h40v40h-80v40zM800 520h40v-80h-80v40h40v40zM640 480v-40h40v40h-40zM80 480h40v-40h40v-40h-80v80zM240 440h120v-40h40v-40h-40v-120h-40v80h-80v40
h80v40h-80v40zM40 400h40v-40h80v-40h-120v80zM400 360h40v-80h-40v80zM0 280h280v-280h-280v280zM800 280h40v-40h-40v40zM40 240v-200h200v200h-200zM360 240h40v-120h-40v40h-40v40h40v40zM600 240h40v-40h40v40h40v-40h120v-80h-80v40h-40v-40h40v-80h40v40h40v-80h-120
v80h-40v-40h-40v40h-40v-80h-120v40h40v40h40v40h40v40h-40v40h40v40zM80 200h120v-120h-120v120zM640 160v-40h40v40h-40zM320 40h40v-40h-40v40zM400 40h40v-40h-40v40z" />
    <glyph glyph-name="N" unicode="N" 
d="M0 840h280v-280h-280v280zM320 840h80v-80h40v-40h80v-80h-40v40h-40v-40h40v-40h-40v-40h40v40h40v-80h-40v-40h40v-40h-40v-40h-40v80h-40v120h-40v-160h-40v40h-80v40h80v200h40v-80h40v80h-40v80h-40v40zM480 840h40v-80h-80v40h40v40zM560 840h280v-280h-280v280z
M40 800v-200h200v200h-200zM600 800v-200h200v200h-200zM80 760h120v-120h-120v120zM640 760h120v-120h-120v120zM0 520h40v-40h-40v40zM160 520h40v-80h-40v80zM520 520h200v-80h40v-120h40v-40h-80v120h-40v-40h-40v40h-40v-120h-40v-40h-40v-40h-40v-40h40v-40h-40v-40
h-40v-40h-40v-40h-80v40h40v40h40v40h-40v40h-40v40h120v40h40v120h40v40h40v40h40v40h-80v40zM800 520h40v-80h-80v40h40v40zM640 480v-40h40v40h-40zM40 480h80v-40h-40v-40h-40v80zM240 440h80v-80h-40v40h-40v40zM360 400h40v-40h-40v40zM800 400h40v-40h-40v40zM0 360
h40v-40h-40v40zM80 360h80v-40h-80v40zM200 360h80v-40h-80v40zM400 360h40v-120h-40v40h-40v-40h-40v80h80v40zM0 280h280v-280h-280v280zM800 280h40v-40h-40v40zM40 240v-200h200v200h-200zM600 240h40v-40h40v40h40v-40h120v-80h-80v40h-40v-40h40v-80h40v40h40v-80
h-120v80h-40v-40h-40v40h-40v-80h-120v40h40v40h40v40h40v40h-40v40h40v40zM80 200h120v-120h-120v120zM640 160v-40h40v40h-40z" />
    <glyph glyph-name="O" unicode="O" 
d="M0 840h280v-280h-280v280zM320 840h40v-40h-40v40zM400 840h80v-40h-40v-40h40v-40h-80v120zM560 840h280v-280h-280v280zM40 800v-200h200v200h-200zM600 800v-200h200v200h-200zM80 760h120v-120h-120v120zM640 760h120v-120h-120v120zM320 720h40v-160h40v-40h-40v-40
h-40v-160h-160v40h120v40h-80v80h40v-40h40v40h-40v40h80v200zM400 680h40v-40h-40v40zM480 680h40v-40h-40v40zM440 640h40v-40h-40v40zM400 600h40v-40h-40v40zM480 600h40v-80h-40v-40h40v-40h-40v-40h-40v40h-80v40h40v40h40v40h40v40zM0 520h40v-80h80v-40h-40v-40h40
v-40h-80v80h-40v120zM160 520h40v-40h-40v40zM520 520h200v-80h40v-80h80v-40h-80v-40h-40v120h-40v-40h-40v40h-40v-120h-40v-40h-40v-40h-40v-40h40v-40h-40v-40h-80v40h-40v40h40v40h40v40h40v120h40v40h40v40h40v40h-80v40zM800 520h40v-80h-80v40h40v40zM640 480v-40
h40v40h-40zM120 480h40v-40h-40v40zM360 360h40v-40h-40v40zM320 320h40v-80h-40v80zM0 280h280v-280h-280v280zM400 280h40v-40h-40v40zM800 280h40v-40h-40v40zM40 240v-200h200v200h-200zM600 240h40v-40h40v40h40v-40h120v-80h-80v40h-40v-40h40v-80h40v40h40v-80h-120
v80h-40v-40h-40v40h-40v-80h-120v40h40v40h40v40h40v40h-40v40h40v40zM80 200h120v-120h-120v120zM320 200h40v-40h-40v40zM640 160v-40h40v40h-40zM320 40h80v-40h-80v40z" />
    <glyph glyph-name="P" unicode="P" 
d="M0 840h280v-280h-280v280zM320 840h40v-40h-40v40zM400 840h40v-40h-40v40zM480 840h40v-200h-40v120h-40v40h40v40zM560 840h280v-280h-280v280zM40 800v-200h200v200h-200zM600 800v-200h200v200h-200zM360 800h40v-40h-40v40zM80 760h120v-120h-120v120zM400 760h40
v-80h-40v80zM640 760h120v-120h-120v120zM320 720h40v-40h40v-40h80v-40h-40v-40h40v40h40v-80h-40v-40h40v-40h-40v-40h-80v40h40v80h-40v-40h-40v-120h40v-80h-40v-40h-40v160h-120v40h-40v-40h-40v80h40v40h40v-40h40v-40h40v40h-40v40h80v200zM360 600v-40h40v40h-40z
M0 520h40v-40h-40v40zM520 520h200v-80h40v-80h40v40h40v-80h-80v-40h-40v120h-40v-40h-40v40h-40v-120h-40v-40h-40v-40h-40v-40h40v-40h-40v-40h-40v-80h-40v40h-40v40h40v40h40v120h40v120h40v40h40v40h40v40h-80v40zM800 520h40v-80h-80v40h40v40zM640 480v-40h40v40
h-40zM40 480h40v-40h-40v40zM0 440h40v-40h-40v40zM0 360h40v-40h-40v40zM80 360h40v-40h-40v40zM160 360h40v-40h-40v40zM240 360h40v-40h-40v40zM0 280h280v-280h-280v280zM800 280h40v-40h-40v40zM40 240v-200h200v200h-200zM360 240h40v-40h-40v40zM600 240h40v-40h40
v40h40v-40h120v-80h-80v40h-40v-40h40v-80h40v40h40v-80h-120v80h-40v-40h-40v40h-40v-80h-120v40h40v40h40v40h40v40h-40v40h40v40zM80 200h120v-120h-120v120zM320 200h40v-40h-40v40zM640 160v-40h40v40h-40zM360 160h40v-40h-40v40zM320 40h40v-40h-40v40z" />
    <glyph glyph-name="Q" unicode="Q" 
d="M0 840h280v-280h-280v280zM320 840h120v-40h-120v40zM480 840h40v-40h-40v40zM560 840h280v-280h-280v280zM40 800v-200h200v200h-200zM600 800v-200h200v200h-200zM80 760h120v-120h-120v120zM360 760h160v-40h-40v-40h-40v40h-80v40zM640 760h120v-120h-120v120z
M320 720h40v-40h40v-40h-40v-80h40v80h80v-40h-40v-40h40v40h40v-80h-40v-40h40v-40h-40v-40h-40v120h-40v-40h-160v40h80v200zM480 680h40v-40h-40v40zM0 520h40v-40h-40v40zM160 520h40v-40h-40v40zM520 520h200v-80h40v-160h-40v120h-40v-40h-40v40h-40v-120h-40v-40h-40
v-40h-40v-40h40v-40h-40v-40h-80v40h-40v40h40v40h-40v40h40v40h-40v-40h-40v120h-40v40h-80v40h200v-40h40v-40h-80v-40h80v-80h40v120h40v40h40v40h40v40h-80v40zM800 520h40v-80h-80v40h40v40zM640 480v-40h40v40h-40zM40 480h40v-40h40v40h40v-80h-40v-80h-40v80h-80v40
h40v40zM160 400h40v-40h80v-40h-120v80zM0 360h40v-40h-40v40zM800 360h40v-40h-40v40zM0 280h280v-280h-280v280zM800 280h40v-40h-40v40zM40 240v-200h200v200h-200zM600 240h40v-40h40v40h40v-40h120v-80h-80v40h-40v-40h40v-80h40v40h40v-80h-120v80h-40v-40h-40v40h-40
v-80h-120v40h40v40h40v40h40v40h-40v40h40v40zM80 200h120v-120h-120v120zM320 200h40v-40h-40v40zM640 160v-40h40v40h-40zM320 40h40v-40h-40v40zM400 40h40v-40h-40v40z" />
    <glyph glyph-name="R" unicode="R" 
d="M0 840h280v-280h-280v280zM320 840h160v-40h40v-40h-80v-40h80v-80h-40v40h-40v-40h-40v80h-40v80h-40v40zM560 840h280v-280h-280v280zM40 800v-200h200v200h-200zM600 800v-200h200v200h-200zM80 760h120v-120h-120v120zM640 760h120v-120h-120v120zM320 720h40v-80h40
v-40h-40v-40h40v-40h-40v-40h40v40h40v40h40v40h40v-80h-40v-40h40v-40h-40v-40h-40v-40h-80v80h-40v40h-80v40h80v200zM440 640h40v-40h-40v40zM400 600h40v-40h-40v40zM0 520h40v-120h-40v120zM160 520h40v-80h-80v40h40v40zM520 520h200v-80h40v-160h-40v120h-40v-40h-40
v40h-40v-120h-40v-40h-40v-40h-40v-40h40v-40h-40v-40h-40v-40h-40v-40h-80v40h40v40h40v40h40v80h-40v40h80v120h40v40h40v40h40v40h-80v40zM800 520h40v-80h-80v40h40v40zM640 480v-40h40v40h-40zM200 440h120v-40h-120v40zM40 400h80v-80h-80v80zM160 400h40v-80h-40v80z
M800 400h40v-80h-40v80zM240 360h80v-40h-80v40zM320 320h40v-80h-40v80zM400 320h40v-40h-40v40zM0 280h280v-280h-280v280zM800 280h40v-40h-40v40zM40 240v-200h200v200h-200zM600 240h40v-40h40v40h40v-40h120v-80h-80v40h-40v-40h40v-80h40v40h40v-80h-120v80h-40v-40
h-40v40h-40v-80h-120v40h40v40h40v40h40v40h-40v40h40v40zM80 200h120v-120h-120v120zM320 200h40v-40h-40v40zM640 160v-40h40v40h-40zM360 160h40v-40h-40v40z" />
    <glyph glyph-name="S" unicode="S" 
d="M0 840h280v-280h-280v280zM320 840h40v-80h-40v80zM440 840h80v-80h-40v40h-40v40zM560 840h280v-280h-280v280zM40 800v-200h200v200h-200zM600 800v-200h200v200h-200zM400 800h40v-40h-40v40zM80 760h120v-120h-120v120zM360 760h40v-40h-40v40zM640 760h120v-120
h-120v120zM320 720h40v-40h-40v40zM400 720h40v-40h-40v40zM360 680h40v-40h-40v40zM440 680h40v-40h40v-160h40v40h40v-80h-120v-80h-40v120h-80v40h80v40h40v40h-40v-40h-40v80h40v40zM320 600h40v-80h-40v80zM0 520h40v-80h40v-40h40v-40h-40v-40h-80v40h40v40h-40v120z
M80 520h80v-40h-40v-40h-40v80zM200 520h120v-80h-40v40h-40v-40h40v-40h-40v-40h80v-40h-120v40h-40v40h40v120zM680 520h40v-80h40v-40h40v-40h-40v-40h-40v40h-80v-40h-40v40h-40v40h120v120zM760 520h80v-40h-80v40zM120 440h40v-40h-40v40zM360 440h40v-40h-40v40z
M800 440h40v-40h-40v40zM120 360h40v-40h-40v40zM360 360h80v-40h40v-40h40v-40h-80v-80h-40v-40h-40v-40h-40v80h40v40h-40v120h40v-40h40v40h-40v40zM480 360h40v-40h-40v40zM800 360h40v-40h-40v40zM560 320h40v-40h-40v40zM680 320h40v-80h-40v80zM760 320h40v-40h40
v-40h-80v80zM0 280h280v-280h-280v280zM600 280h40v-40h40v-80h120v-40h-160v-80h-40v40h-40v80h-80v40h120v80zM40 240v-200h200v200h-200zM720 240h40v-40h-40v40zM80 200h120v-120h-120v120zM800 200h40v-40h-40v40zM440 160h40v-40h-40v40zM480 120h40v-40h-40v40z
M400 80h40v-40h-40v40zM520 80h40v-80h-40v80zM720 80h40v-40h-40v40zM320 40h80v-40h-80v40zM640 40h40v-40h-40v40zM760 40h40v-40h-40v40z" />
    <glyph glyph-name="T" unicode="T" 
d="M0 840h280v-280h-280v280zM400 840h80v-40h-80v40zM560 840h280v-280h-280v280zM40 800v-200h200v200h-200zM600 800v-200h200v200h-200zM320 800h80v-40h-40v-40h40v40h80v-40h-40v-80h40v-40h-40v-80h40v-40h40v40h80v-40h-40v-40h-40v-40h40v40h40v40h80v40h120v-40
h-80v-40h-80v-80h40v40h40v-40h80v-40h40v-120h-40v80h-40v-120h-40v-120h-40v40h-40v-80h-40v40h-80v-40h-40v40h-40v40h-40v40h40v80h40v-40h40v40h40v-40h80v-40h40v40h-40v40h80v40h-80v40h80v40h-200v-40h-40v40h-40v40h-40v80h40v-40h40v40h-40v40h-120v120h40v-80h40
v80h-40v80h-40v120zM480 800h40v-40h-40v40zM80 760h120v-120h-120v120zM640 760h120v-120h-120v120zM480 720h40v-80h-40v80zM480 600h40v-40h-40v40zM0 520h40v-40h-40v40zM240 520h40v-40h-40v40zM40 480h40v-40h-40v40zM120 480h40v-80h-40v80zM200 480h40v-40h-40v40z
M280 480h40v-40h-40v40zM800 480h40v-40h-40v40zM240 440h40v-40h-40v40zM0 400h120v-40h80v40h40v-40h80v-40h-280v40h-40v40zM320 400h40v-40h-40v40zM800 400h40v-40h-40v40zM360 360h40v-40h40v-40h40v-40h-80v40h-80v40h40v40zM0 280h280v-280h-280v280zM520 280h40
v-40h-40v40zM40 240v-200h200v200h-200zM360 240h40v-40h-40v40zM560 240h40v-40h-40v40zM80 200h120v-120h-120v120zM360 160h40v-40h-40v40zM560 120v-40h40v40h-40zM760 120h80v-80h-40v40h-40v40zM360 80h40v-80h-80v40h40v40zM720 40h40v-40h-40v40z" />
    <glyph glyph-name="U" unicode="U" 
d="M0 840h280v-280h-280v280zM320 840h40v-40h-40v40zM560 840h280v-280h-280v280zM40 800v-200h200v200h-200zM600 800v-200h200v200h-200zM440 800h40v-40h40v-120h-40v80h-40v80zM80 760h120v-120h-120v120zM360 760h40v-40h-40v40zM640 760h120v-120h-120v120zM320 720
h40v-160h40v-40h-40v-80h-80v40h-40v40h80v200zM400 680h40v-40h40v-40h-40v-40h-40v120zM480 600h40v-80h-40v-40h40v-40h-40v-40h-40v-80h-40v-40h-40v-40h-40v80h40v40h40v40h-40v40h40v80h40v40h40v40zM0 520h40v-40h-40v40zM160 520h40v-40h-40v40zM520 520h200v-80h40
v-160h-40v120h-40v-40h-40v40h-40v-120h-40v-40h-40v-40h-40v-40h40v-40h-40v-40h-80v40h-40v40h-40v40h80v80h40v-40h40v120h40v40h40v40h40v40h-80v40zM800 520h40v-80h-80v40h40v40zM640 480v-40h40v40h-40zM120 480h40v-40h120v-40h-120v-40h-40v40h-40v-40h40v-40h-80
v80h-40v40h120v40zM280 400h80v-40h-40v-40h-120v40h80v40zM0 280h280v-280h-280v280zM800 280h40v-40h-40v40zM40 240v-200h200v200h-200zM600 240h40v-40h40v40h40v-40h120v-80h-80v40h-40v-40h40v-80h40v40h40v-80h-120v80h-40v-40h-40v40h-40v-80h-120v40h40v40h40v40
h40v40h-40v40h40v40zM80 200h120v-120h-120v120zM640 160v-40h40v40h-40zM360 80h40v-40h-40v40zM320 40h40v-40h-40v40z" />
    <glyph glyph-name="V" unicode="V" 
d="M0 840h280v-280h-280v280zM320 840h40v-40h-40v40zM440 840h80v-80h-40v40h-40v40zM560 840h280v-280h-280v280zM40 800v-200h200v200h-200zM600 800v-200h200v200h-200zM360 800h80v-40h-40v-40h-40v80zM80 760h120v-120h-120v120zM640 760h120v-120h-120v120zM320 720
h40v-40h40v-80h-40v-40h40v40h40v-40h40v40h40v-80h-40v-40h40v-40h-40v-40h-40v120h-40v-120h-80v40h40v40h-40v-40h-40v40h-40v40h80v200zM400 720h40v-40h-40v40zM480 680h40v-40h-40v40zM440 640h40v-40h-40v40zM0 520h40v-40h40v-40h-40v-40h-40v120zM160 520h40v-80
h80v-40h-120v40h-40v40h40v40zM520 520h200v-80h40v-160h-40v120h-40v-40h-40v40h-40v-120h-40v-40h-40v-40h-40v-40h40v-40h-40v-40h-40v-80h-120v40h80v80h40v80h-40v-80h-40v40h-40v40h40v40h120v120h40v40h40v40h40v40h-80v40zM800 520h40v-80h-80v40h40v40zM640 480
v-40h40v40h-40zM120 400h40v-40h-40v40zM400 400h40v-80h-80v-80h-40v120h80v40zM800 400h40v-40h-40v40zM0 360h40v-40h-40v40zM80 360h40v-40h-40v40zM240 360h40v-40h-40v40zM0 280h280v-280h-280v280zM800 280h40v-40h-40v40zM40 240v-200h200v200h-200zM600 240h40v-40
h40v40h40v-40h120v-80h-80v40h-40v-40h40v-80h40v40h40v-80h-120v80h-40v-40h-40v40h-40v-80h-120v40h40v40h40v40h40v40h-40v40h40v40zM80 200h120v-120h-120v120zM640 160v-40h40v40h-40z" />
    <glyph glyph-name="W" unicode="W" 
d="M0 840h280v-280h-280v280zM320 840h120v-40h80v-120h-40v80h-40v-80h-120v40h80v80h-40v-40h-40v80zM560 840h280v-280h-280v280zM40 800v-200h200v200h-200zM600 800v-200h200v200h-200zM80 760h120v-120h-120v120zM640 760h120v-120h-120v120zM440 680h40v-40h40v-160
h40v40h40v-80h-120v-80h-40v-40h40v-40h40v-40h-80v40h-40v120h-40v40h80v40h-80v40h-40v80h40v-40h40v-40h40v40h40v40h-40v-40h-40v80h40v40zM0 520h40v-40h-40v40zM80 520h80v-80h-40v-40h-40v-40h-40v-40h-40v120h40v40h40v40zM200 520h120v-40h-120v40zM680 520h40v-80
h40v-40h40v-40h-40v-40h-40v40h-80v-40h-40v40h-40v40h120v120zM760 520h80v-40h-80v40zM200 440h120v-40h40v-40h-40v-40h-80v40h40v40h-80v40zM800 440h40v-40h-40v40zM120 400h80v-80h-120v40h40v40zM480 360h40v-40h-40v40zM320 320h40v-120h-40v120zM560 320h40v-40
h-40v40zM680 320h40v-80h-40v80zM800 320h40v-80h-40v80zM0 280h280v-280h-280v280zM600 280h40v-40h40v-80h120v-40h-160v-80h-40v40h-40v80h-80v40h120v80zM40 240v-200h200v200h-200zM400 240h40v-80h40v-40h-40v-120h-40v80h-80v80h80v80zM720 240h40v-40h-40v40z
M80 200h120v-120h-120v120zM800 200h40v-40h-40v40zM480 120h40v-40h-40v40zM520 80h40v-80h-40v80zM720 80h40v-40h-40v40zM320 40h40v-40h-40v40zM640 40h40v-40h-40v40zM760 40h40v-40h-40v40z" />
    <glyph glyph-name="X" unicode="X" 
d="M0 840h280v-280h-280v280zM360 840h160v-120h-80v80h-80v40zM560 840h280v-280h-280v280zM40 800v-200h200v200h-200zM600 800v-200h200v200h-200zM80 760h120v-120h-120v120zM320 760h80v-80h-40v-160h-40v240zM640 760h120v-120h-120v120zM400 680h40v-40h40v-40h-40
v-80h40v-40h80v40h200v-40h-40v-40h-40v40h-80v-40h40v-40h-40v-40h-80v-80h-40v80h-40v40h40v40h-160v40h40v40h40v160zM480 680h40v-40h-40v40zM480 600h40v-40h-40v40zM0 520h40v-80h-40v80zM80 520h200v-40h-80v-40h-80v-40h-40v120zM520 440v-40h40v40h-40zM240 440h80
v-80h-40v40h-40v40zM40 400h40v-40h200v-40h-240v80zM360 400h40v-40h-40v40zM680 400h40v-40h-40v40zM800 400h40v-40h-40v40zM320 360h40v-80h-40v80zM400 360h40v-80h-40v80zM600 360h40v-80h-40v80zM720 360h40v-80h80v-40h-80v-80h-40v-40h-40v40h-40v40h-40v40h40v40
h80v80zM0 280h280v-280h-280v280zM360 280h40v-40h40v-40h-40v-40h-40v-40h40v40h40v40h40v-40h40v40h40v-40h40v-40h40v-40h-40v-40h-80v-40h-40v40h-40v40h40v40h-40v-40h-120v160h40v40zM440 280h40v-40h-40v40zM520 280h40v-40h-40v40zM40 240v-200h200v200h-200z
M680 240v-40h40v40h-40zM80 200h120v-120h-120v120zM520 120v-40h40v40h-40zM680 80h40v-40h-40v40zM800 80h40v-40h-40v40zM320 40h40v-40h-40v40zM400 40h40v-40h-40v40zM600 40h40v-40h-40v40zM720 40h40v-40h-40v40z" />
    <glyph glyph-name="Y" unicode="Y" 
d="M0 840h280v-280h-280v280zM320 840h200v-40h-200v40zM560 840h280v-280h-280v280zM40 800v-200h200v200h-200zM600 800v-200h200v200h-200zM80 760h120v-120h-120v120zM400 760h80v-40h-80v40zM640 760h120v-120h-120v120zM320 720h80v-40h40v-40h40v-40h-40v-40h-40v80
h-40v-200h-40v40h-80v40h80v200zM480 680h40v-40h-40v40zM480 600h40v-80h-40v-40h40v-40h-40v-40h-40v40h-40v80h40v40h40v40zM0 520h40v-40h40v-80h40v-40h-120v160zM160 520h40v-40h-40v40zM520 520h200v-80h40v-120h40v40h40v-120h-80v40h-40v120h-40v-40h-40v40h-40
v-120h-40v-40h-40v-40h-40v-40h40v-40h-40v-40h-40v80h-40v40h-40v40h-40v80h80v-80h80v120h40v40h40v40h40v40h-80v40zM800 520h40v-80h-80v40h40v40zM640 480v-40h40v40h-40zM200 480h40v-40h80v-40h-80v-40h-40v40h-40v40h40v40zM360 440h40v-40h-40v40zM160 360h40v-40
h-40v40zM240 360h80v-40h-80v40zM400 360h40v-40h-40v40zM0 280h280v-280h-280v280zM40 240v-200h200v200h-200zM600 240h40v-40h40v40h40v-40h120v-80h-80v40h-40v-40h40v-80h40v40h40v-80h-120v80h-40v-40h-40v40h-40v-80h-120v40h40v40h40v40h40v40h-40v40h40v40zM80 200
h120v-120h-120v120zM320 200h40v-40h-40v40zM640 160v-40h40v40h-40zM360 160h40v-120h40v-40h-120v40h40v120z" />
    <glyph glyph-name="Z" unicode="Z" 
d="M0 840h280v-280h-280v280zM320 840h120v-40h80v-160h-40v120h-40v-80h-80v-40h40v-40h-40v-80h40v-80h40v80h-40v80h40v-40h40v40h40v-80h-40v-40h40v-40h-40v-40h-120v-120h80v-40h40v120h40v40h40v40h40v40h-80v40h200v-80h40v-120h40v80h40v-160h-80v40h-40v120h-40
v-40h-40v40h-40v-120h-40v-40h-40v-40h-40v-40h40v-40h-40v-40h-40v40h-40v-40h-40v80h80v40h-40v40h-80v120h-40v40h-40v-40h40v-40h-120v40h40v40h-80v-40h-40v80h80v80h40v-40h40v-40h120v40h-120v40h80v200h80v40h-40v40h-40v40zM560 840h280v-280h-280v280zM40 800
v-200h200v200h-200zM600 800v-200h200v200h-200zM80 760h120v-120h-120v120zM640 760h120v-120h-120v120zM440 640h40v-40h-40v40zM0 520h40v-40h-40v40zM800 520h40v-80h-80v40h40v40zM640 480v-40h40v40h-40zM0 440h40v-80h40v-40h-80v120zM400 360h40v-40h-40v40zM0 280
h280v-280h-280v280zM40 240v-200h200v200h-200zM600 240h40v-40h40v40h40v-40h120v-80h-80v40h-40v-40h40v-80h40v40h40v-80h-120v80h-40v-40h-40v40h-40v-80h-120v40h40v40h40v40h40v40h-40v40h40v40zM80 200h120v-120h-120v120zM320 200h40v-40h-40v40zM640 160v-40h40v40
h-40zM400 80h40v-40h-40v40zM320 40h40v-40h-40v40z" />
    <glyph glyph-name="bracketleft" unicode="[" 
 />
    <glyph glyph-name="backslash" unicode="\" 
 />
    <glyph glyph-name="bracketright" unicode="]" 
 />
    <glyph glyph-name="asciicircum" unicode="^" 
 />
    <glyph glyph-name="underscore" unicode="_" 
 />
    <glyph glyph-name="grave" unicode="`" 
 />
    <glyph glyph-name="a" unicode="a" 
d="M0 840h280v-280h-280v280zM320 840h120v-80h40v80h40v-120h-40v-80h40v-160h40v40h40v-80h-120v-80h-40v-40h-40v-40h-40v-40h40v-40h-80v120h40v40h40v80h-40v-80h-40v120h40v40h-40v80h40v-40h40v-80h40v80h40v40h-40v120h-40v80h-40v-40h-40v80zM560 840h280v-280
h-280v280zM40 800v-200h200v200h-200zM600 800v-200h200v200h-200zM80 760h120v-120h-120v120zM640 760h120v-120h-120v120zM320 720h80v-40h-80v40zM400 600h40v-40h-40v40zM0 520h40v-200h-40v200zM80 520h80v-40h-40v-40h-40v80zM200 520h120v-40h-120v40zM680 520h40
v-80h40v-120h-40v40h-80v-40h-40v40h-40v40h120v120zM760 520h80v-40h-80v40zM120 440h80v-40h40v-40h40v-40h-200v40h40v80zM240 440h40v-40h-40v40zM800 440h40v-40h-40v40zM480 360h40v-40h-40v40zM440 320h40v-40h40v-40h-80v80zM560 320h40v-40h-40v40zM680 320h40v-80
h-40v80zM0 280h280v-280h-280v280zM600 280h40v-40h40v-80h120v-40h-160v-80h-40v40h-40v80h-80v40h120v80zM40 240v-200h200v200h-200zM720 240h80v-40h-80v40zM80 200h120v-120h-120v120zM400 200h40v-40h40v-40h-40v-80h-40v40h-80v80h80v40zM800 200h40v-40h-40v40z
M480 120h40v-40h-40v40zM520 80h40v-80h-40v80zM720 80h40v-40h-40v40zM800 80h40v-40h-40v40zM320 40h80v-40h-80v40zM640 40h40v-40h-40v40z" />
    <glyph glyph-name="b" unicode="b" 
d="M0 840h280v-280h-280v280zM560 840h280v-280h-280v280zM40 800v-200h200v200h-200zM600 800v-200h200v200h-200zM360 800h120v-40h-120v40zM80 760h120v-120h-120v120zM480 760h40v-240h-80v40h40v40h-40v-40h-40v40h-40v-40h-40v80h160v40h-80v40h80v40zM640 760h120
v-120h-120v120zM0 520h40v-40h-40v40zM120 520h40v-40h40v40h80v-40h-40v-40h-40v-40h-40v40h-80v-40h-40v-80h-40v120h40v40h80v40zM320 520h80v-80h40v-40h-40v-40h-40v40h-40v40h40v40h-40v40zM520 520h40v-40h-40v40zM600 520h40v-40h-40v40zM560 480h40v-40h-40v40z
M720 480h80v-40h40v-40h-40v-40h-40v-40h-40v40h-40v40h80v40h-40v40zM240 440h40v-40h-40v40zM480 440h80v-40h-80v40zM80 400h40v-40h-40v40zM200 400h40v-40h-40v40zM440 400h40v-40h-40v40zM160 360h40v-40h-40v40zM240 360h40v-40h-40v40zM480 360h40v-40h-40v40z
M560 360h40v-40h-40v40zM640 360h40v-40h40v-40h-80v-40h80v-40h120v-120h-40v40h-120v40h-120v40h40v120h40v40zM800 360h40v-80h-40v80zM320 320h160v-40h-80v-40h-40v40h-40v40zM0 280h280v-280h-280v280zM520 280h40v-80h-80v-80h-40v40h-40v-40h-80v40h40v40h80v40h80
v40zM720 280h80v-40h-80v40zM40 240v-200h200v200h-200zM320 240h40v-40h-40v40zM80 200h120v-120h-120v120zM480 120h40v-40h-40v40zM640 120h40v-80h40v40h40v-40h40v-40h-160v120zM520 80h80v-40h-80v40zM320 40h200v-40h-200v40z" />
    <glyph glyph-name="c" unicode="c" 
d="M0 840h280v-280h-280v280zM360 840h120v-40h-120v40zM560 840h280v-280h-280v280zM40 800v-200h200v200h-200zM600 800v-200h200v200h-200zM480 800h40v-160h-40v40h-40v-40h-40v40h-40v-160h-40v240h80v-40h80v80zM80 760h120v-120h-120v120zM640 760h120v-120h-120v120
zM440 640h40v-40h-40v40zM400 600h40v-80h-40v80zM480 600h40v-40h-40v40zM0 520h40v-40h-40v40zM80 520h200v-40h-80v-40h80v-40h-40v-40h-40v40h-80v40h40v40h-40v-40h-40v-40h-40v80h40v40zM360 520h40v-40h-40v40zM440 520h40v-40h80v40h200v-40h-40v-40h-40v40h-80v-40
h40v-40h-40v-40h-80v-80h-40v80h-40v40h40v40h-40v80zM520 440v-40h40v40h-40zM320 440h80v-80h40v-40h-40v-80h-40v40h-40v40h-80v40h120v40h-40v40zM680 400h40v-40h-40v40zM760 400h80v-40h-80v40zM40 360h160v-40h-160v40zM600 360h40v-80h-40v80zM720 360h40v-80h40
v-80h-40v-40h-40v-40h-40v40h-40v40h-40v40h40v40h80v80zM800 320h40v-40h-40v40zM0 280h280v-280h-280v280zM440 280h40v-40h-40v40zM520 280h40v-40h-40v40zM40 240v-200h200v200h-200zM680 240v-40h40v40h-40zM320 240h40v-40h40v-40h-40v-40h40v40h40v40h40v-40h40v40
h40v-40h40v-40h40v-40h-40v-40h-80v-40h-40v40h-40v40h40v40h-40v-40h-120v160zM80 200h120v-120h-120v120zM520 120v-40h40v40h-40zM680 80h40v-40h-40v40zM320 40h80v-40h-80v40zM600 40h40v-40h-40v40zM720 40h80v-40h-80v40z" />
    <glyph glyph-name="d" unicode="d" 
d="M0 840h280v-280h-280v280zM320 840h120v-40h-40v-40h-40v40h-40v40zM560 840h280v-280h-280v280zM40 800v-200h200v200h-200zM600 800v-200h200v200h-200zM440 800h40v-80h-40v80zM80 760h120v-120h-120v120zM640 760h120v-120h-120v120zM320 720h40v-80h120v-40h-40v-40
h-40v40h-40v-80h80v40h40v40h40v-80h-40v-40h40v-40h-40v-40h-120v40h80v40h-120v-80h-120v80h40v-40h40v40h-40v40h80v200zM400 720h40v-40h-40v40zM480 680h40v-40h-40v40zM0 520h40v-40h40v-80h40v-40h-40v-40h-80v80h40v40h-40v80zM160 520h40v-40h-40v40zM520 520h200
v-80h40v-120h40v-120h40v-80h-80v40h-40v-40h40v-120h-40v80h-40v-40h-40v40h-40v-80h-120v40h40v40h40v40h40v40h-40v40h40v40h40v-40h40v40h40v-40h40v80h-40v120h-40v-40h-40v40h-40v-120h-40v-40h-40v-40h-40v-40h40v-40h-40v-40h-40v40h-40v40h40v80h40v120h40v40h40
v40h40v40h-80v40zM800 520h40v-80h-80v40h40v40zM640 480v-40h40v40h-40zM120 440h40v-40h-40v40zM320 400h40v-40h-40v40zM200 360h120v-40h-120v40zM360 360h80v-120h-40v80h-40v40zM800 360h40v-40h-40v40zM320 320h40v-80h-40v80zM0 280h280v-280h-280v280zM40 240v-200
h200v200h-200zM80 200h120v-120h-120v120zM320 200h80v-40h-80v40zM640 160v-40h40v40h-40zM360 120h40v-40h40v-40h-40v-40h-80v40h40v80zM800 40h40v-40h-40v40z" />
    <glyph glyph-name="e" unicode="e" 
d="M0 840h280v-280h-280v280zM400 840h80v-80h40v-40h-80v80h-40v40zM560 840h280v-280h-280v280zM40 800v-200h200v200h-200zM600 800v-200h200v200h-200zM360 800h40v-40h-40v40zM80 760h120v-120h-120v120zM320 760h40v-40h40v-40h-40v-40h40v-40h-40v-80h-40v240z
M640 760h120v-120h-120v120zM400 680h40v-40h-40v40zM480 680h40v-40h-40v40zM440 640h40v-40h-40v40zM400 600h40v-80h-40v80zM480 600h40v-40h-40v40zM0 520h40v-40h-40v40zM80 520h200v-40h-40v-40h40v-40h-40v-40h40v40h40v-40h40v-40h40v120h40v-40h40v40h-40v80h40
v-40h80v40h200v-40h-40v-40h-40v40h-80v-40h40v-40h-40v-40h-80v-80h-40v80h-40v-80h40v-40h-40v-40h40v-40h40v40h40v-40h40v-40h40v-40h-40v-40h-80v-40h-40v40h-80v-40h-80v40h40v40h-40v160h40v-40h40v40h-40v40h-40v40h-280v40h40v80h-40v40h40v40zM360 520h40v-40h-40
v40zM120 480v-40h80v40h-80zM280 480h80v-80h-40v40h-40v40zM520 440v-40h40v40h-40zM120 400v-40h40v40h-40zM680 400h40v-40h-40v40zM760 400h40v-80h-40v-40h40v-80h-40v-40h-40v-40h-40v40h-40v40h-40v40h40v40h80v80h40v40zM600 360h40v-80h-40v80zM800 320h40v-40h-40
v40zM0 280h280v-280h-280v280zM520 280h40v-40h-40v40zM40 240v-200h200v200h-200zM680 240v-40h40v40h-40zM80 200h120v-120h-120v120zM360 160v-40h80v-40h40v40h-40v40h-80zM520 120v-40h40v40h-40zM680 80h40v-40h-40v40zM600 40h40v-40h-40v40zM720 40h80v-40h-80v40z
" />
    <glyph glyph-name="f" unicode="f" 
d="M0 840h280v-280h-280v280zM400 840h120v-80h-40v40h-40v-40h40v-80h-40v-40h-40v120h-40v40h40v40zM560 840h280v-280h-280v280zM40 800v-200h200v200h-200zM600 800v-200h200v200h-200zM80 760h120v-120h-120v120zM320 760h40v-120h40v-40h-40v-80h-40v240zM640 760h120
v-120h-120v120zM480 680h40v-40h-40v40zM440 640h40v-40h-40v40zM400 600h40v-40h-40v40zM480 600h40v-40h-40v40zM0 520h40v-40h-40v40zM80 520h200v-40h-40v-40h-40v-40h40v-40h-80v80h-40v-80h40v-40h-120v40h40v80h-40v40h40v40zM360 520h40v-40h-40v40zM440 520h40v-40
h80v40h200v-40h-40v-40h-40v40h-80v-40h40v-40h-40v-40h-80v-80h-40v80h-40v-80h40v-40h-40v-40h40v-40h40v40h40v-40h40v-40h40v-40h-40v-40h-80v-40h-40v40h-40v-40h-120v40h80v40h-80v160h80v160h-80v-80h-80v40h40v40h-40v40h160v40h40v40zM440 440v-40h40v40h-40z
M520 440v-40h40v40h-40zM0 440h40v-40h-40v40zM680 400h40v-40h-40v40zM800 400h40v-40h-40v40zM600 360h40v-80h-40v80zM720 360h80v-40h-40v-40h40v-80h-40v-40h-40v-40h-40v40h-40v40h-40v40h40v40h80v80zM320 320h40v-40h-40v40zM800 320h40v-40h-40v40zM0 280h280v-280
h-280v280zM520 280h40v-40h-40v40zM40 240v-200h200v200h-200zM680 240v-40h40v40h-40zM360 200v-40h40v-40h40v-40h40v40h-40v40h-40v40h-40zM80 200h120v-120h-120v120zM520 120v-40h40v40h-40zM680 80h40v-40h-40v40zM600 40h40v-40h-40v40zM720 40h80v-40h-80v40z" />
    <glyph glyph-name="g" unicode="g" 
d="M0 840h280v-280h-280v280zM320 840h120v-80h40v80h40v-120h-40v-40h-40v40h-40v40h-40v40h-40v40zM560 840h280v-280h-280v280zM40 800v-200h200v200h-200zM600 800v-200h200v200h-200zM80 760h120v-120h-120v120zM640 760h120v-120h-120v120zM320 720h80v-40h-40v-40
h120v-40h-40v-40h40v40h40v-80h-40v-40h40v-40h-40v-40h-80v80h-40v-40h-40v40h-80v40h80v200zM480 680h40v-40h-40v40zM360 600v-80h40v80h-40zM0 520h40v-40h40v-80h40v-40h-40v-40h-80v200zM160 520h40v-40h40v-40h-120v40h40v40zM520 520h200v-80h40v-40h80v-80h-40v40
h-40v-40h40v-120h40v-80h-80v40h-40v-40h40v-120h-40v80h-40v-40h-40v40h-40v-80h-120v40h40v40h40v40h40v40h-40v40h40v40h40v-40h40v40h40v-40h40v80h-40v120h-40v-40h-40v40h-40v-120h-40v-40h-40v-40h-40v-40h40v-40h-40v-40h-40v40h-40v-40h-40v80h80v80h40v120h40v40
h40v40h40v40h-80v40zM800 520h40v-80h-80v40h40v40zM640 480v-40h40v40h-40zM240 440h40v-40h-40v40zM320 400h40v-40h80v-120h-40v-40h-40v40h-40v80h-80v40h80v40zM160 360h40v-40h-40v40zM0 280h280v-280h-280v280zM40 240v-200h200v200h-200zM80 200h120v-120h-120v120z
M320 200h40v-40h-40v40zM640 160v-40h40v40h-40zM400 80h40v-80h-120v40h80v40zM800 40h40v-40h-40v40z" />
    <glyph glyph-name="h" unicode="h" 
d="M0 840h280v-280h-280v280zM320 840h80v-40h40v-40h80v-120h-40v80h-40v-40h-40v40h-40v80h-40v40zM440 840h40v-40h-40v40zM560 840h280v-280h-280v280zM40 800v-200h200v200h-200zM600 800v-200h200v200h-200zM80 760h120v-120h-120v120zM640 760h120v-120h-120v120z
M320 720h40v-80h40v-40h-40v-80h80v40h40v40h40v-80h-40v-40h40v-40h-40v-40h-40v80h-40v-40h-120v40h-40v40h80v200zM440 640h40v-40h-40v40zM400 600h40v-40h-40v40zM0 520h40v-40h-40v40zM160 520h40v-40h-40v40zM520 520h200v-80h40v-80h40v-160h40v-80h-80v40h-40v-40
h40v-120h-40v80h-40v-40h-40v40h-40v-80h-120v40h40v40h40v40h40v40h-40v40h40v40h40v-40h40v40h40v-40h40v80h-40v120h-40v-40h-40v40h-40v-120h-40v-40h-40v-40h-40v-40h40v-40h-40v-40h-40v40h-40v40h40v40h-40v80h-40v-40h-40v80h40v40h40v-40h40v-80h40v120h40v40h40
v40h40v40h-80v40zM800 520h40v-80h-80v40h40v40zM640 480v-40h40v40h-40zM40 480h40v-80h80v-40h-80v-40h-80v80h40v80zM160 440h120v-40h-120v40zM400 400h40v-40h-40v40zM160 360h160v-40h-160v40zM0 280h280v-280h-280v280zM40 240v-200h200v200h-200zM80 200h120v-120
h-120v120zM320 200h40v-40h-40v40zM640 160v-40h40v40h-40zM360 120h40v-40h-40v40zM400 80h40v-40h-40v40zM320 40h40v-40h-40v40zM800 40h40v-40h-40v40z" />
    <glyph glyph-name="i" unicode="i" 
d="M0 840h280v-280h-280v280zM560 840h280v-280h-280v280zM40 800v-200h200v200h-200zM600 800v-200h200v200h-200zM360 800h80v-40h40v-40h-80v-40h-40v-40h40v40h40v-40h40v-40h-40v-80h-40v80h-40v-80h-40v240h40v40zM80 760h120v-120h-120v120zM640 760h120v-120h-120
v120zM480 720h40v-80h-40v80zM480 600h40v-40h-40v40zM0 520h40v-40h40v40h200v-40h-160v-80h80v40h80v40h40v-40h40v80h40v-120h-40v-120h-40v40h-120v40h-40v-40h-120v40h40v80h-80v80zM440 520h40v-40h80v40h200v-40h-40v-40h-40v40h-80v-40h40v-40h-40v-40h-80v-80h-40
v80h-40v40h40v40h-40v80zM520 440v-40h40v40h-40zM240 400v-40h40v40h-40zM680 400h40v-40h-40v40zM760 400h40v-40h-40v40zM600 360h40v-80h-40v80zM720 360h40v-80h40v-80h-40v-40h-40v-40h-40v40h-40v40h-40v40h40v40h80v80zM800 360h40v-80h-40v80zM400 320h40v-40h40
v-40h-120v40h40v40zM0 280h280v-280h-280v280zM520 280h40v-40h-40v40zM40 240v-200h200v200h-200zM680 240v-40h40v40h-40zM320 240h40v-120h80v-40h40v40h-40v40h-40v40h80v-40h40v40h40v-40h40v-40h40v-40h-40v-40h-80v-40h-40v40h-80v40h-80v160zM80 200h120v-120h-120
v120zM520 120v-40h40v40h-40zM680 80h40v-40h-40v40zM320 40h40v-40h-40v40zM600 40h40v-40h-40v40zM720 40h80v-40h-80v40z" />
    <glyph glyph-name="j" unicode="j" 
d="M0 840h280v-280h-280v280zM360 840h80v-200h40v40h40v-160h-80v-80h-40v-40h-40v40h-40v-40h-80v40h40v40h40v40h40v-40h40v120h-40v-40h-40v80h40v40h40v80h-40v80zM480 840h40v-40h-40v40zM560 840h280v-280h-280v280zM40 800v-200h200v200h-200zM600 800v-200h200v200
h-200zM80 760h120v-120h-120v120zM480 760h40v-40h-40v40zM640 760h120v-120h-120v120zM440 600v-40h40v40h-40zM0 520h40v-40h-40v40zM120 520h40v-40h40v40h80v-40h-40v-40h-160v40h40v40zM520 520h40v-40h-40v40zM600 520h40v-40h-40v40zM560 480h40v-40h-40v40zM720 480
h80v-40h40v-40h-40v-40h-40v-40h-40v40h-40v40h80v40h-40v40zM0 440h80v-120h-40v40h-40v80zM480 440h80v-40h-80v40zM120 400h120v-40h-120v40zM440 400h40v-40h-40v40zM240 360h200v-40h-40v-120h-80v40h40v40h-40v40h-80v40zM480 360h40v-40h-40v40zM560 360h40v-40h-40
v40zM640 360h40v-40h40v-40h-80v-40h80v-40h120v-120h-40v40h-120v40h-120v40h40v120h40v40zM440 320h40v-40h-40v40zM800 320h40v-40h-40v40zM0 280h280v-280h-280v280zM520 280h40v-80h-80v-80h-40v40h-40v40h40v40h80v40zM720 280h80v-40h-80v40zM40 240v-200h200v200
h-200zM80 200h120v-120h-120v120zM320 160h80v-40h-80v40zM480 120h40v-40h-40v40zM640 120h40v-80h40v40h40v-40h40v-40h-160v120zM360 80h40v-80h-80v40h40v40zM520 80h80v-40h-80v40zM440 40h80v-40h-80v40z" />
    <glyph glyph-name="k" unicode="k" 
d="M0 840h280v-280h-280v280zM360 840h160v-40h-80v-40h-40v40h-40v40zM560 840h280v-280h-280v280zM40 800v-200h200v200h-200zM600 800v-200h200v200h-200zM80 760h120v-120h-120v120zM440 760h80v-240h-120v80h40v-40h40v40h-40v40h40v40h-120v40h80v40zM640 760h120
v-120h-120v120zM320 640h40v-80h-40v80zM0 520h40v-40h80v-80h-40v40h-80v80zM120 520h40v-40h-40v40zM200 520h80v-40h-40v-40h40v-40h-40v-40h-40v-40h-40v40h-40v40h80v40h-40v40h40v40zM320 520h80v-40h-40v-120h80v-40h-40v-40h-80v80h-40v40h40v120zM520 520h40v-40
h-40v40zM600 520h40v-40h-40v40zM400 480h40v-80h-40v80zM560 480h40v-40h-40v40zM720 480h80v-40h40v-40h-80v40h-40v40zM480 440h80v-40h-80v40zM0 400h40v-80h-40v80zM440 400h40v-40h-40v40zM680 400h80v-80h-40v40h-40v40zM240 360h40v-40h-40v40zM480 360h40v-40h-40
v40zM560 360h40v-40h-40v40zM640 360h40v-40h40v-40h-80v-40h80v-40h120v-120h-40v40h-120v40h-120v40h40v120h40v40zM440 320h40v-40h-40v40zM800 320h40v-40h-40v40zM0 280h280v-280h-280v280zM400 280h40v-40h-40v40zM520 280h40v-80h-80v-80h-80v40h40v80h80v40z
M720 280h80v-40h-80v40zM40 240v-200h200v200h-200zM320 240h80v-80h-40v40h-40v40zM80 200h120v-120h-120v120zM320 160h40v-40h-40v40zM480 120h40v-40h-40v40zM640 120h40v-80h40v40h40v-40h40v-40h-160v120zM360 80h80v-40h-80v40zM520 80h80v-40h-80v40zM320 40h40v-40
h-40v40zM440 40h80v-40h-80v40z" />
    <glyph glyph-name="l" unicode="l" 
d="M0 840h280v-280h-280v280zM320 840h80v-80h40v-40h-80v40h-40v80zM480 840h40v-80h-80v40h40v40zM560 840h280v-280h-280v280zM40 800v-200h200v200h-200zM600 800v-200h200v200h-200zM80 760h120v-120h-120v120zM640 760h120v-120h-120v120zM320 720h40v-40h-40v40z
M360 680h120v-40h40v-160h40v40h40v-80h-120v-80h-40v40h-40v40h-40v40h40v40h40v40h40v40h-40v40h-40v-40h-40v80zM320 600h40v-40h40v-40h-80v80zM400 600h40v-40h-40v40zM0 520h40v-40h40v40h80v-80h-40v-40h-40v-40h80v40h40v120h120v-80h-40v40h-40v-40h40v-40h-40v-40
h40v40h80v-40h-40v-40h-280v40h-40v40h40v40h-40v80zM680 520h40v-80h40v-40h40v-40h40v-40h-120v40h-80v-40h-40v40h-40v40h120v120zM760 520h80v-40h-80v40zM800 440h40v-40h-40v40zM360 360h40v-40h-40v40zM480 360h40v-40h-40v40zM320 320h40v-40h80v40h40v-40h40v-40
h-80v-40h-120v120zM560 320h40v-40h-40v40zM680 320h40v-80h-40v80zM0 280h280v-280h-280v280zM600 280h40v-40h40v-80h120v-40h-160v-80h-40v40h-40v80h-80v40h120v80zM40 240v-200h200v200h-200zM720 240h80v-40h-80v40zM80 200h120v-120h-120v120zM800 200h40v-40h-40v40
zM320 160h40v-40h80v-40h-40v-80h-80v40h40v40h-40v80zM440 160h40v-40h-40v40zM480 120h40v-40h-40v40zM520 80h40v-80h-40v80zM720 80h40v-40h-40v40zM800 80h40v-40h-40v40zM640 40h40v-40h-40v40z" />
    <glyph glyph-name="m" unicode="m" 
d="M0 840h280v-280h-280v280zM360 840h40v-80h-40v80zM440 840h80v-40h-80v40zM560 840h280v-280h-280v280zM40 800v-200h200v200h-200zM600 800v-200h200v200h-200zM80 760h120v-120h-120v120zM320 760h40v-40h40v-120h-40v-80h-40v240zM400 760h120v-120h-40v40h-40v40
h-40v40zM640 760h120v-120h-120v120zM440 640h40v-40h-40v40zM400 600h40v-40h-40v40zM480 600h40v-40h-40v40zM0 520h40v-40h-40v40zM80 520h200v-40h-40v-40h80v-80h-40v40h-40v-40h40v-40h-80v160h-80v-40h40v-120h-80v40h40v40h-40v120zM400 520h80v-40h80v40h200v-40
h-40v-40h-40v40h-80v-40h40v-40h-40v-40h-80v-80h-40v80h-80v-80h80v-40h-40v-40h40v-40h40v40h40v-40h40v-40h40v-40h-40v-40h-80v-40h-40v40h-40v-40h-120v40h80v40h-80v160h40v40h-40v40h40v80h120v40h-80v80zM520 440v-40h40v40h-40zM40 400h40v-40h-40v40zM680 400h40
v-40h-40v40zM760 400h40v-40h40v-80h-40v40h-40v-40h40v-80h-40v-40h-40v-40h-40v40h-40v40h-40v40h40v40h80v80h40v40zM0 360h40v-40h-40v40zM600 360h40v-80h-40v80zM0 280h280v-280h-280v280zM520 280h40v-40h-40v40zM40 240v-200h200v200h-200zM680 240v-40h40v40h-40z
M360 200v-80h80v-40h40v40h-40v40h-40v40h-40zM80 200h120v-120h-120v120zM520 120v-40h40v40h-40zM680 80h40v-40h-40v40zM600 40h40v-40h-40v40zM720 40h80v-40h-80v40z" />
    <glyph glyph-name="n" unicode="n" 
d="M0 840h280v-280h-280v280zM360 840h40v-40h40v40h40v-40h40v-40h-40v-40h-40v40h-80v80zM560 840h280v-280h-280v280zM40 800v-200h200v200h-200zM600 800v-200h200v200h-200zM80 760h120v-120h-120v120zM320 760h40v-80h40v-80h-40v-80h-40v240zM640 760h120v-120h-120
v120zM400 720h40v-40h-40v40zM480 720h40v-80h-40v80zM440 640h40v-40h-40v40zM400 600h40v-80h40v-40h80v40h200v-40h-40v-40h-40v40h-80v-40h40v-40h-40v-40h-80v-80h-40v80h-80v-40h-40v-40h-40v80h40v80h40v-40h80v40h-40v40h-40v120zM480 600h40v-40h-40v40zM0 520h40
v-40h-40v40zM80 520h200v-40h-40v-40h-120v-40h-40v120zM280 480h80v-40h-80v40zM520 440v-40h40v40h-40zM0 440h40v-40h-40v40zM240 440h40v-40h-40v40zM40 400h40v-40h-40v40zM120 400h40v-40h40v-40h-120v40h40v40zM200 400h40v-40h-40v40zM280 400h40v-40h-40v40z
M680 400h40v-40h-40v40zM800 400h40v-120h-40v40h-40v-40h40v-80h-40v-40h-40v-40h-40v40h-40v40h-40v40h40v40h80v80h80v40zM0 360h40v-40h-40v40zM240 360h40v-40h-40v40zM600 360h40v-80h-40v80zM0 280h280v-280h-280v280zM400 280h80v-40h-40v-40h40v-40h40v40h40v-40
h40v-40h40v-40h-40v-40h-80v-40h-40v40h-80v-40h-80v40h40v40h-40v160h40v-40h40v80zM520 280h40v-40h-40v40zM40 240v-200h200v200h-200zM680 240v-40h40v40h-40zM80 200h120v-120h-120v120zM400 160v-40h40v-40h40v40h-40v40h-40zM520 120v-40h40v40h-40zM680 80h40v-40
h-40v40zM600 40h40v-40h-40v40zM720 40h80v-40h-80v40z" />
    <glyph glyph-name="o" unicode="o" 
d="M0 840h280v-280h-280v280zM320 840h80v-40h40v-40h-40v-40h80v-80h40v-160h40v40h40v-80h-120v-80h-40v40h-80v40h-40v40h80v-40h40v40h-40v40h-80v80h40v-40h40v40h40v-40h40v40h-40v40h-40v-40h-40v80h-40v40h40v40h-40v80zM560 840h280v-280h-280v280zM40 800v-200
h200v200h-200zM600 800v-200h200v200h-200zM80 760h120v-120h-120v120zM480 760h40v-40h-40v40zM640 760h120v-120h-120v120zM0 520h40v-40h40v40h80v-40h-40v-40h40v-40h-80v-40h80v-40h-120v40h-40v160zM200 520h120v-40h-80v-40h-80v40h40v40zM680 520h40v-80h40v-80h40
v80h40v-120h-120v40h-80v-40h-40v40h-40v40h120v120zM760 520h80v-40h-80v40zM240 440h80v-40h40v-40h40v-80h-40v-80h-40v120h-80v40h40v40h-40v40zM160 400h80v-40h-80v40zM480 360h40v-40h-40v40zM440 320h40v-40h40v-40h-80v-40h-40v80h40v40zM560 320h40v-40h-40v40z
M680 320h40v-80h-40v80zM0 280h280v-280h-280v280zM600 280h40v-40h40v-80h120v-40h-160v-80h-40v40h-40v80h-80v40h120v80zM40 240v-200h200v200h-200zM720 240h80v-40h-80v40zM80 200h120v-120h-120v120zM360 200h40v-80h40v-40h-120v80h40v40zM800 200h40v-40h-40v40z
M440 160h40v-40h-40v40zM480 120h40v-40h-40v40zM520 80h40v-80h-40v80zM720 80h40v-40h-40v40zM800 80h40v-40h-40v40zM320 40h120v-40h-120v40zM640 40h40v-40h-40v40z" />
    <glyph glyph-name="p" unicode="p" 
d="M0 840h280v-280h-280v280zM320 840h120v-40h-40v-40h120v-120h-40v80h-40v-40h-40v40h-40v80h-40v40zM480 840h40v-40h-40v40zM560 840h280v-280h-280v280zM40 800v-200h200v200h-200zM600 800v-200h200v200h-200zM80 760h120v-120h-120v120zM640 760h120v-120h-120v120z
M320 720h40v-80h120v-40h-40v-40h40v40h40v-80h-40v-40h40v-40h-40v-40h-120v40h40v40h-40v-40h-80v40h-40v40h80v200zM360 600v-40h40v40h-40zM0 520h40v-160h-40v160zM160 520h40v-40h-40v40zM520 520h200v-80h40v-80h80v-40h-80v-40h-40v120h-40v-40h-40v40h-40v-120h-40
v-40h-40v-40h-40v-40h40v-40h-40v-40h-40v80h-120v40h120v40h40v120h40v40h40v40h40v40h-80v40zM800 520h40v-80h-80v40h40v40zM640 480v-40h40v40h-40zM80 480h80v-40h-80v40zM160 440h40v-80h-40v-40h-40v80h40v40zM240 440h40v-40h-40v40zM280 400h40v-40h-40v40z
M240 360h40v-40h-40v40zM360 360h80v-80h-40v40h-40v40zM320 320h40v-80h-40v80zM0 280h280v-280h-280v280zM760 280h40v-80h40v-80h-80v40h-40v-40h40v-120h-40v80h-40v-40h-40v40h-40v-80h-120v40h40v40h40v40h40v40h-40v40h40v40h40v-40h40v40h40v-40h40v80zM40 240v-200
h200v200h-200zM80 200h120v-120h-120v120zM640 160v-40h40v40h-40zM360 120h40v-40h-40v40zM400 80h40v-40h-40v40zM320 40h40v-40h-40v40zM800 40h40v-40h-40v40z" />
    <glyph glyph-name="q" unicode="q" 
d="M0 840h280v-280h-280v280zM320 840h200v-40h-200v40zM560 840h280v-280h-280v280zM40 800v-200h200v200h-200zM600 800v-200h200v200h-200zM80 760h120v-120h-120v120zM360 760h40v-40h80v-40h-40v-40h-80v-80h40v40h40v-40h40v40h40v-80h-40v-40h40v-40h-40v-40h-40v40
h-80v-80h-40v40h-120v-80h-80v80h40v40h160v40h-80v40h80v200h40v40zM480 760h40v-40h-40v40zM640 760h120v-120h-120v120zM480 680h40v-40h-40v40zM440 640h40v-40h-40v40zM360 520v-40h80v40h-80zM0 520h40v-40h-40v40zM160 520h40v-40h-40v40zM520 520h200v-80h40v-40h40
v-40h40v-40h-80v-40h-40v120h-40v-40h-40v40h-40v-120h-40v-40h-40v-40h-40v-40h40v-40h-40v-40h-40v40h-40v-40h-40v80h80v80h40v120h40v40h40v40h40v40h-80v40zM800 520h40v-80h-80v40h40v40zM640 480v-40h40v40h-40zM40 480h80v-80h-40v-80h-80v80h40v80zM240 360h80v-40
h-80v40zM360 360h80v-120h-120v80h40v-40h40v40h-40v40zM0 280h280v-280h-280v280zM760 280h40v-80h40v-80h-80v40h-40v-40h40v-120h-40v80h-40v-40h-40v40h-40v-80h-120v40h40v40h40v40h40v40h-40v40h40v40h40v-40h40v40h40v-40h40v80zM40 240v-200h200v200h-200zM80 200
h120v-120h-120v120zM320 200h40v-40h-40v40zM640 160v-40h40v40h-40zM320 40h80v-40h-80v40zM800 40h40v-40h-40v40z" />
    <glyph glyph-name="r" unicode="r" 
d="M0 840h280v-280h-280v280zM360 840h40v-80h-40v80zM440 840h40v-40h-40v40zM560 840h280v-280h-280v280zM40 800v-200h200v200h-200zM600 800v-200h200v200h-200zM80 760h120v-120h-120v120zM400 760h40v-120h-40v-40h-40v-40h-40v80h40v40h40v80zM480 760h40v-40h-40v40
zM640 760h120v-120h-120v120zM480 680h40v-160h-80v40h40v40h-40v40h40v40zM400 600h40v-40h-40v40zM360 560h40v-40h-40v40zM0 520h40v-40h40v-40h-80v80zM120 520h40v-40h-40v40zM200 520h80v-40h-40v-40h40v40h40v40h40v-80h-40v-80h-40v40h-40v-40h40v-40h-160v40h-40
v40h80v-40h40v80h-40v40h40v40zM400 520h40v-40h-40v40zM520 520h40v-40h-40v40zM600 520h40v-40h-40v40zM560 480h40v-40h-40v40zM720 480h80v-40h40v-40h-40v-40h-40v-40h-40v40h-40v40h80v40h-40v40zM400 440h40v-40h40v-40h-80v80zM480 440h80v-40h-80v40zM0 400h40v-80
h-40v80zM320 360h80v-40h-40v-40h-40v80zM480 360h40v-40h-40v40zM560 360h40v-40h-40v40zM640 360h40v-40h40v-40h-80v-40h80v-40h120v-120h-40v40h-120v40h-120v40h40v120h40v40zM800 360h40v-80h-40v-40h-80v40h40v40h40v40zM440 320h40v-40h-40v40zM0 280h280v-280h-280
v280zM360 280h80v-40h80v40h40v-80h-80v-80h-160v40h40v40h-40v40h40v40zM40 240v-200h200v200h-200zM400 200v-40h40v40h-40zM80 200h120v-120h-120v120zM480 120h40v-40h-40v40zM640 120h40v-80h40v40h40v-40h40v-40h-160v120zM360 80h40v-80h-80v40h40v40zM520 80h80v-40
h-80v40zM440 40h80v-40h-80v40z" />
    <glyph glyph-name="s" unicode="s" 
d="M0 840h280v-280h-280v280zM320 840h120v-40h80v-40h-40v-40h40v-80h-40v40h-40v80h-40v-80h-40v-40h120v-40h-40v-40h-40v40h-40v-40h40v-40h40v40h40v40h40v-80h-40v-40h40v-40h-40v-40h-80v40h40v40h-200v40h80v200h40v80h-40v40zM560 840h280v-280h-280v280zM40 800
v-200h200v200h-200zM600 800v-200h200v200h-200zM80 760h120v-120h-120v120zM640 760h120v-120h-120v120zM0 520h40v-80h-40v80zM160 520h40v-80h120v-80h-40v40h-80v-40h80v-40h-160v120h40v80zM520 520h200v-80h40v-40h80v-80h-80v-40h-40v120h-40v-40h-40v40h-40v-120
h-40v-40h-40v-40h-40v-40h40v-40h-40v-40h-40v80h-40v40h40v40h40v120h40v40h40v40h40v40h-80v40zM800 520h40v-80h-80v40h40v40zM640 480v-40h40v40h-40zM80 480h40v-40h-40v40zM0 400h40v-40h-40v40zM320 360h120v-80h-40v-80h-40v40h-40v120zM0 280h280v-280h-280v280z
M760 280h40v-80h40v-80h-80v40h-40v-40h40v-120h-40v80h-40v-40h-40v40h-40v-80h-120v40h40v40h40v40h40v40h-40v40h40v40h40v-40h40v40h40v-40h40v80zM40 240v-200h200v200h-200zM80 200h120v-120h-120v120zM320 200h40v-40h-40v40zM640 160v-40h40v40h-40zM360 160h40v-80
h40v-80h-40v40h-40v120zM320 40h40v-40h-40v40zM800 40h40v-40h-40v40z" />
    <glyph glyph-name="t" unicode="t" 
d="M0 840h280v-280h-280v280zM320 840h40v-40h-40v40zM400 840h80v-40h-40v-40h40v-40h40v-80h-40v40h-40v-40h-40v-40h-40v-40h40v-40h-40v-40h40v-40h-40v-40h40v40h40v120h40v40h40v-80h-40v-40h40v-40h-40v-40h-40v-80h-40v40h-40v-40h40v-40h-40v-40h-40v80h-80v40h40
v40h40v80h-80v40h80v200h40v-40h40v80h-40v40h40v40zM560 840h280v-280h-280v280zM40 800v-200h200v200h-200zM600 800v-200h200v200h-200zM80 760h120v-120h-120v120zM640 760h120v-120h-120v120zM440 640h40v-40h-40v40zM400 600h40v-40h-40v40zM0 520h40v-40h-40v40z
M160 520h40v-40h-40v40zM520 520h200v-80h40v-160h-40v120h-40v-40h-40v40h-40v-120h-40v-40h-40v-40h-40v-40h40v-40h-40v-40h-40v80h-120v40h40v40h120v120h40v40h40v40h40v40h-80v40zM800 520h40v-80h-80v40h40v40zM640 480v-40h40v40h-40zM40 480h120v-40h40v-40h-40
v-80h-40v40h-40v-40h-80v120h40v-40h80v40h-80v40zM200 480h40v-40h-40v40zM240 440h40v-40h-40v40zM800 360h40v-40h-40v40zM0 280h280v-280h-280v280zM760 280h40v-80h40v-80h-80v40h-40v-40h40v-120h-40v80h-40v-40h-40v40h-40v-80h-120v40h40v40h40v40h40v40h-40v40h40
v40h40v-40h40v40h40v-40h40v80zM40 240v-200h200v200h-200zM80 200h120v-120h-120v120zM640 160v-40h40v40h-40zM360 120h40v-40h-40v40zM400 80h40v-80h-120v40h80v40zM800 40h40v-40h-40v40z" />
    <glyph glyph-name="u" unicode="u" 
d="M0 840h280v-280h-280v280zM320 840h120v-40h80v-40h-40v-40h40v-40h-40v-40h40v-160h40v40h40v-80h-120v-80h-40v-40h-40v-40h-40v-40h40v-40h-80v120h40v40h40v80h40v80h-40v80h40v-40h40v40h-40v160h-40v40h-40v-40h-40v80zM560 840h280v-280h-280v280zM40 800v-200
h200v200h-200zM600 800v-200h200v200h-200zM80 760h120v-120h-120v120zM360 760h40v-80h-80v40h40v40zM640 760h120v-120h-120v120zM320 600h40v-80h-40v80zM0 520h40v-40h40v-80h40v-80h-80v40h-40v40h40v40h-40v80zM80 520h80v-80h-40v40h-40v40zM200 520h120v-40h-80v-40
h120v-40h-40v-80h-80v40h40v40h-40v-40h-40v160zM360 520h40v-80h-40v80zM680 520h40v-80h40v-80h40v-80h-40v40h-40v40h-80v-40h-40v40h-40v40h120v120zM760 520h80v-40h-80v40zM800 440h40v-40h-40v40zM160 360h40v-40h-40v40zM480 360h40v-40h-40v40zM440 320h40v-40h40
v-40h-120v40h40v40zM560 320h40v-40h-40v40zM680 320h40v-80h-40v80zM0 280h280v-280h-280v280zM600 280h40v-40h40v-80h120v-40h-160v-80h-40v40h-40v80h-80v40h120v80zM40 240v-200h200v200h-200zM720 240h80v-40h-80v40zM80 200h120v-120h-120v120zM800 200h40v-40h-40
v40zM320 160h80v-40h40v-80h-80v40h-40v80zM440 160h40v-40h-40v40zM480 120h40v-40h-40v40zM520 80h40v-80h-40v80zM720 80h40v-40h-40v40zM800 80h40v-40h-40v40zM320 40h40v-40h-40v40zM640 40h40v-40h-40v40z" />
    <glyph glyph-name="v" unicode="v" 
d="M0 840h280v-280h-280v280zM360 840h80v-40h-40v-40h-40v80zM480 840h40v-80h-40v-40h-40v80h40v40zM560 840h280v-280h-280v280zM40 800v-200h200v200h-200zM600 800v-200h200v200h-200zM80 760h120v-120h-120v120zM320 760h40v-80h40v-40h80v-40h-40v-40h-40v40h-40v-40
h40v-40h-80v240zM640 760h120v-120h-120v120zM400 720h40v-40h-40v40zM480 720h40v-80h-40v80zM480 600h40v-40h-40v40zM0 520h40v-40h40v-40h40v-40h80v40h-40v40h-80v40h200v-40h-40v-40h40v-40h-40v-40h120v40h40v-40h40v-40h-40v-40h-80v40h-120v40h-80v-40h-80v40h40
v40h-40v40h-40v80zM400 520h80v-40h80v40h200v-40h-40v-40h-40v40h-80v-40h40v-40h-40v-40h-80v-80h-40v80h-40v40h40v40h-40v-40h-40v40h-120v40h120v40zM520 440v-40h40v40h-40zM680 400h40v-40h-40v40zM800 400h40v-40h-40v40zM600 360h40v-80h-40v80zM720 360h80v-40h40
v-40h-40v-80h-40v-40h-40v-40h-40v40h-40v40h-40v40h40v40h80v80zM0 280h280v-280h-280v280zM440 280h40v-40h-40v40zM520 280h40v-40h-40v40zM40 240v-200h200v200h-200zM680 240v-40h40v40h-40zM320 240h40v-80h80v40h40v-40h40v40h40v-40h40v-40h40v-40h-40v-40h-80v-40
h-40v40h-80v-40h-80v40h40v40h-40v160zM80 200h120v-120h-120v120zM440 120v-40h40v40h-40zM520 120v-40h40v40h-40zM680 80h40v-40h-40v40zM600 40h40v-40h-40v40zM720 40h80v-40h-80v40z" />
    <glyph glyph-name="w" unicode="w" 
d="M0 840h280v-280h-280v280zM320 840h200v-40h-120v-80h80v-80h40v-160h40v40h40v-80h-120v-80h-40v-40h-80v-120h-40v200h40v-40h40v40h40v40h-40v80h40v40h40v40h-40v-40h-40v40h-40v80h-40v40h40v40h-40v80zM560 840h280v-280h-280v280zM40 800v-200h200v200h-200z
M600 800v-200h200v200h-200zM80 760h120v-120h-120v120zM480 760h40v-40h-40v40zM640 760h120v-120h-120v120zM320 600h40v-80h-40v80zM0 520h40v-40h-40v40zM80 520h80v-40h40v40h120v-40h-80v-40h80v-40h-80v-40h40v-40h-120v40h40v80h-40v-40h-40v-80h-40v120h40v40h-40
v40zM680 520h40v-80h40v-80h40v-80h-40v40h-40v40h-80v-40h-40v40h-40v40h120v120zM760 520h80v-40h-80v40zM320 480h40v-40h-40v40zM800 440h40v-80h-40v80zM0 400h40v-80h-40v80zM480 360h40v-40h-40v40zM440 320h40v-40h40v-40h-80v80zM560 320h40v-40h-40v40zM680 320
h40v-80h-40v80zM0 280h280v-280h-280v280zM600 280h40v-40h40v-80h120v-40h-160v-80h-40v40h-40v80h-80v40h120v80zM40 240v-200h200v200h-200zM720 240h80v-40h-80v40zM80 200h120v-120h-120v120zM400 200h40v-40h40v-40h-40v-40h-120v80h80v40zM800 200h40v-40h-40v40z
M480 120h40v-40h-40v40zM520 80h40v-80h-40v80zM720 80h40v-40h-40v40zM800 80h40v-40h-40v40zM320 40h120v-40h-120v40zM640 40h40v-40h-40v40z" />
    <glyph glyph-name="x" unicode="x" 
d="M0 840h280v-280h-280v280zM320 840h40v-40h-40v40zM560 840h280v-280h-280v280zM40 800v-200h200v200h-200zM600 800v-200h200v200h-200zM360 800h40v-80h-40v80zM440 800h40v-40h40v-40h-40v-40h-40v-40h40v-40h-40v-40h-40v40h-40v-40h40v-40h-40v-40h-120v40h80v200
h40v-40h40v40h40v80zM80 760h120v-120h-120v120zM640 760h120v-120h-120v120zM480 680h40v-40h-40v40zM480 600h40v-80h-40v-40h40v-40h-40v-40h-40v160h40v40zM0 520h40v-40h120v-40h-120v-40h80v-40h-40v-40h-80v200zM160 520h40v-40h-40v40zM520 520h200v-80h40v-80h40
v-40h-40v-40h-40v120h-40v-40h-40v40h-40v-120h-40v-40h-40v-40h-40v-40h40v-40h-40v-40h-40v80h-40v40h40v40h40v120h40v40h40v40h40v40h-80v40zM800 520h40v-80h-80v40h40v40zM640 480v-40h40v40h-40zM240 440h160v-80h-40v40h-40v-40h40v-120h-40v80h-80v40h40v40h-40v40
zM120 360h80v-40h-80v40zM0 280h280v-280h-280v280zM760 280h40v-80h40v-80h-80v40h-40v-40h40v-120h-40v80h-40v-40h-40v40h-40v-80h-120v40h40v40h40v40h40v40h-40v40h40v40h40v-40h40v40h40v-40h40v80zM40 240v-200h200v200h-200zM360 240h40v-40h-40v40zM80 200h120
v-120h-120v120zM320 200h40v-40h-40v40zM640 160v-40h40v40h-40zM360 120h40v-40h40v-80h-40v40h-40v80zM320 40h40v-40h-40v40zM800 40h40v-40h-40v40z" />
    <glyph glyph-name="y" unicode="y" 
d="M0 840h280v-280h-280v280zM320 840h80v-40h-40v-40h-40v80zM440 840h40v-40h-40v40zM560 840h280v-280h-280v280zM40 800v-200h200v200h-200zM600 800v-200h200v200h-200zM480 800h40v-80h-40v-80h40v-160h40v40h40v-80h-120v-80h-40v160h-40v120h40v80h-40v40h80v40z
M80 760h120v-120h-120v120zM640 760h120v-120h-120v120zM320 720h80v-40h-80v40zM440 600v-40h40v40h-40zM320 600h40v-80h-40v80zM0 520h40v-40h-40v40zM80 520h80v-80h120v-40h-40v-40h-40v40h-40v-40h-40v-40h-80v40h-40v40h40v80h40v-80h40v80h-40v40zM200 520h120v-40
h-120v40zM360 520h40v-40h-40v40zM680 520h40v-80h40v-120h-40v40h-80v-40h-40v40h-40v40h120v120zM760 520h80v-40h-80v40zM320 480h40v-40h40v-40h-40v-40h-40v-40h-80v40h40v40h40v80zM800 440h40v-40h-40v40zM360 360h40v-40h-40v40zM480 360h40v-40h-40v40zM800 360h40
v-40h-40v40zM320 320h40v-80h40v40h40v40h40v-40h40v-40h-80v-40h-40v-80h40v-80h-40v40h-80v80h40v40h-40v120zM560 320h40v-40h-40v40zM680 320h40v-80h-40v80zM760 320h40v-40h-40v40zM0 280h280v-280h-280v280zM600 280h40v-40h40v-80h120v-40h-160v-80h-40v40h-40v80
h-80v40h120v80zM40 240v-200h200v200h-200zM720 240h80v-40h-80v40zM80 200h120v-120h-120v120zM800 200h40v-40h-40v40zM440 160h40v-40h-40v40zM480 120h40v-40h-40v40zM520 80h40v-80h-40v80zM720 80h40v-40h-40v40zM800 80h40v-40h-40v40zM320 40h80v-40h-80v40zM640 40
h40v-40h-40v40z" />
    <glyph glyph-name="z" unicode="z" 
d="M0 840h280v-280h-280v280zM400 840h120v-40h-40v-40h-40v40h-40v40zM560 840h280v-280h-280v280zM40 800v-200h200v200h-200zM600 800v-200h200v200h-200zM360 800h40v-40h-40v40zM80 760h120v-120h-120v120zM480 760h40v-240h-120v-40h-80v40h40v40h40v40h40v-40h40v40
h-40v40h40v40h-80v40h80v40zM640 760h120v-120h-120v120zM320 640h80v-40h-40v-40h-40v80zM0 520h40v-80h-40v80zM120 520h40v-40h-40v40zM200 520h80v-40h-40v-40h40v-40h-40v-40h40v40h40v-80h-120v40h-40v120h40v40zM520 520h40v-40h-40v40zM600 520h40v-40h-40v40z
M400 480h40v-40h-40v40zM560 480h40v-40h-40v40zM720 480h80v-40h40v-40h-40v-40h-40v-40h-40v40h-40v40h80v40h-40v40zM320 440h40v-40h-40v40zM480 440h80v-40h-80v40zM0 400h80v-80h-40v40h-40v40zM360 400h120v-40h-40v-40h40v-40h-40v-40h80v40h40v-80h-80v-80h-160v40
h120v40h-40v40h-40v40h40v80h-40v40zM120 360h40v-40h-40v40zM480 360h40v-40h-40v40zM560 360h40v-40h-40v40zM640 360h40v-40h40v-40h-80v-40h80v-40h120v-120h-40v40h-120v40h-120v40h40v120h40v40zM320 320h40v-40h-40v40zM760 320h80v-40h-40v-40h-80v40h40v40zM0 280
h280v-280h-280v280zM40 240v-200h200v200h-200zM320 240h40v-40h-40v40zM80 200h120v-120h-120v120zM480 120h40v-40h-40v40zM640 120h40v-80h40v40h40v-40h40v-40h-160v120zM520 80h80v-40h-80v40zM320 40h200v-40h-200v40z" />
    <glyph glyph-name="braceleft" unicode="{" 
 />
    <glyph glyph-name="bar" unicode="|" 
 />
    <glyph glyph-name="braceright" unicode="}" 
 />
    <glyph glyph-name="asciitilde" unicode="~" 
 />
    <glyph glyph-name="exclamdown" unicode="&#xa1;" 
 />
    <glyph glyph-name="cent" unicode="&#xa2;" 
 />
    <glyph glyph-name="sterling" unicode="&#xa3;" 
 />
    <glyph glyph-name="currency" unicode="&#xa4;" 
 />
    <glyph glyph-name="yen" unicode="&#xa5;" 
 />
    <glyph glyph-name="brokenbar" unicode="&#xa6;" 
 />
    <glyph glyph-name="section" unicode="&#xa7;" 
 />
    <glyph glyph-name="dieresis" unicode="&#xa8;" 
 />
    <glyph glyph-name="copyright" unicode="&#xa9;" 
 />
    <glyph glyph-name="ordfeminine" unicode="&#xaa;" 
 />
    <glyph glyph-name="guillemotleft" unicode="&#xab;" 
 />
    <glyph glyph-name="logicalnot" unicode="&#xac;" 
 />
    <glyph glyph-name="registered" unicode="&#xae;" 
 />
    <glyph glyph-name="macron" unicode="&#xaf;" 
 />
    <glyph glyph-name="degree" unicode="&#xb0;" 
 />
    <glyph glyph-name="plusminus" unicode="&#xb1;" 
 />
    <glyph glyph-name="uni00B2" unicode="&#xb2;" 
 />
    <glyph glyph-name="uni00B3" unicode="&#xb3;" 
 />
    <glyph glyph-name="acute" unicode="&#xb4;" 
 />
    <glyph glyph-name="mu" unicode="&#xb5;" 
 />
    <glyph glyph-name="paragraph" unicode="&#xb6;" 
 />
    <glyph glyph-name="periodcentered" unicode="&#xb7;" 
 />
    <glyph glyph-name="periodcentered" unicode="&#x2219;" 
 />
    <glyph glyph-name="cedilla" unicode="&#xb8;" 
 />
    <glyph glyph-name="uni00B9" unicode="&#xb9;" 
 />
    <glyph glyph-name="ordmasculine" unicode="&#xba;" 
 />
    <glyph glyph-name="guillemotright" unicode="&#xbb;" 
 />
    <glyph glyph-name="onequarter" unicode="&#xbc;" 
 />
    <glyph glyph-name="onehalf" unicode="&#xbd;" 
 />
    <glyph glyph-name="threequarters" unicode="&#xbe;" 
 />
    <glyph glyph-name="questiondown" unicode="&#xbf;" 
 />
    <glyph glyph-name="Agrave" unicode="&#xc0;" 
 />
    <glyph glyph-name="Aacute" unicode="&#xc1;" 
 />
    <glyph glyph-name="Acircumflex" unicode="&#xc2;" 
 />
    <glyph glyph-name="Atilde" unicode="&#xc3;" 
 />
    <glyph glyph-name="Adieresis" unicode="&#xc4;" 
 />
    <glyph glyph-name="Aring" unicode="&#xc5;" 
 />
    <glyph glyph-name="AE" unicode="&#xc6;" 
 />
    <glyph glyph-name="Ccedilla" unicode="&#xc7;" 
 />
    <glyph glyph-name="Egrave" unicode="&#xc8;" 
 />
    <glyph glyph-name="Eacute" unicode="&#xc9;" 
 />
    <glyph glyph-name="Ecircumflex" unicode="&#xca;" 
 />
    <glyph glyph-name="Edieresis" unicode="&#xcb;" 
 />
    <glyph glyph-name="Igrave" unicode="&#xcc;" 
 />
    <glyph glyph-name="Iacute" unicode="&#xcd;" 
 />
    <glyph glyph-name="Icircumflex" unicode="&#xce;" 
 />
    <glyph glyph-name="Idieresis" unicode="&#xcf;" 
 />
    <glyph glyph-name="Eth" unicode="&#xd0;" 
 />
    <glyph glyph-name="Ntilde" unicode="&#xd1;" 
 />
    <glyph glyph-name="Ograve" unicode="&#xd2;" 
 />
    <glyph glyph-name="Oacute" unicode="&#xd3;" 
 />
    <glyph glyph-name="Ocircumflex" unicode="&#xd4;" 
 />
    <glyph glyph-name="Otilde" unicode="&#xd5;" 
 />
    <glyph glyph-name="Odieresis" unicode="&#xd6;" 
 />
    <glyph glyph-name="multiply" unicode="&#xd7;" 
 />
    <glyph glyph-name="Oslash" unicode="&#xd8;" 
 />
    <glyph glyph-name="Ugrave" unicode="&#xd9;" 
 />
    <glyph glyph-name="Uacute" unicode="&#xda;" 
 />
    <glyph glyph-name="Ucircumflex" unicode="&#xdb;" 
 />
    <glyph glyph-name="Udieresis" unicode="&#xdc;" 
 />
    <glyph glyph-name="Yacute" unicode="&#xdd;" 
 />
    <glyph glyph-name="Thorn" unicode="&#xde;" 
 />
    <glyph glyph-name="germandbls" unicode="&#xdf;" 
 />
    <glyph glyph-name="agrave" unicode="&#xe0;" 
 />
    <glyph glyph-name="aacute" unicode="&#xe1;" 
 />
    <glyph glyph-name="acircumflex" unicode="&#xe2;" 
 />
    <glyph glyph-name="atilde" unicode="&#xe3;" horiz-adv-x="922" 
 />
    <glyph glyph-name="adieresis" unicode="&#xe4;" horiz-adv-x="922" 
 />
    <glyph glyph-name="aring" unicode="&#xe5;" horiz-adv-x="922" 
 />
    <glyph glyph-name="ae" unicode="&#xe6;" horiz-adv-x="1454" 
 />
    <glyph glyph-name="ccedilla" unicode="&#xe7;" horiz-adv-x="905" 
 />
    <glyph glyph-name="egrave" unicode="&#xe8;" horiz-adv-x="909" 
 />
    <glyph glyph-name="eacute" unicode="&#xe9;" horiz-adv-x="909" 
 />
    <glyph glyph-name="ecircumflex" unicode="&#xea;" horiz-adv-x="909" 
 />
    <glyph glyph-name="edieresis" unicode="&#xeb;" horiz-adv-x="909" 
 />
    <glyph glyph-name="igrave" unicode="&#xec;" horiz-adv-x="514" 
 />
    <glyph glyph-name="iacute" unicode="&#xed;" horiz-adv-x="514" 
 />
    <glyph glyph-name="icircumflex" unicode="&#xee;" horiz-adv-x="514" 
 />
    <glyph glyph-name="idieresis" unicode="&#xef;" horiz-adv-x="514" 
 />
    <glyph glyph-name="eth" unicode="&#xf0;" horiz-adv-x="1139" 
 />
    <glyph glyph-name="ntilde" unicode="&#xf1;" horiz-adv-x="1108" 
 />
    <glyph glyph-name="ograve" unicode="&#xf2;" horiz-adv-x="1010" 
 />
    <glyph glyph-name="oacute" unicode="&#xf3;" horiz-adv-x="1010" 
 />
    <glyph glyph-name="ocircumflex" unicode="&#xf4;" horiz-adv-x="1010" 
 />
    <glyph glyph-name="otilde" unicode="&#xf5;" horiz-adv-x="1010" 
 />
    <glyph glyph-name="odieresis" unicode="&#xf6;" horiz-adv-x="1010" 
 />
    <glyph glyph-name="divide" unicode="&#xf7;" horiz-adv-x="1014" 
 />
    <glyph glyph-name="oslash" unicode="&#xf8;" horiz-adv-x="1010" 
 />
    <glyph glyph-name="ugrave" unicode="&#xf9;" horiz-adv-x="1059" 
 />
    <glyph glyph-name="uacute" unicode="&#xfa;" horiz-adv-x="1059" 
 />
    <glyph glyph-name="ucircumflex" unicode="&#xfb;" horiz-adv-x="1059" 
 />
    <glyph glyph-name="udieresis" unicode="&#xfc;" horiz-adv-x="1059" 
 />
    <glyph glyph-name="yacute" unicode="&#xfd;" horiz-adv-x="868" 
 />
    <glyph glyph-name="thorn" unicode="&#xfe;" horiz-adv-x="1010" 
 />
    <glyph glyph-name="ydieresis" unicode="&#xff;" horiz-adv-x="868" 
 />
    <glyph glyph-name="dotlessi" unicode="&#x131;" horiz-adv-x="514" 
 />
    <glyph glyph-name="circumflex" unicode="&#x2c6;" horiz-adv-x="1024" 
 />
    <glyph glyph-name="caron" unicode="&#x2c7;" horiz-adv-x="1024" 
 />
    <glyph glyph-name="uni02C9" unicode="&#x2c9;" horiz-adv-x="1024" 
 />
    <glyph glyph-name="breve" unicode="&#x2d8;" horiz-adv-x="1024" 
 />
    <glyph glyph-name="dotaccent" unicode="&#x2d9;" horiz-adv-x="1024" 
 />
    <glyph glyph-name="ring" unicode="&#x2da;" horiz-adv-x="1024" 
 />
    <glyph glyph-name="ogonek" unicode="&#x2db;" horiz-adv-x="1024" 
 />
    <glyph glyph-name="tilde" unicode="&#x2dc;" horiz-adv-x="1024" 
 />
    <glyph glyph-name="hungarumlaut" unicode="&#x2dd;" horiz-adv-x="1024" 
 />
    <glyph glyph-name="endash" unicode="&#x2013;" horiz-adv-x="1108" 
 />
    <glyph glyph-name="emdash" unicode="&#x2014;" horiz-adv-x="2048" 
 />
    <glyph glyph-name="quoteleft" unicode="&#x2018;" horiz-adv-x="557" 
 />
    <glyph glyph-name="quoteright" unicode="&#x2019;" horiz-adv-x="557" 
 />
    <glyph glyph-name="quotesinglbase" unicode="&#x201a;" horiz-adv-x="557" 
 />
    <glyph glyph-name="quotedblleft" unicode="&#x201c;" horiz-adv-x="910" 
 />
    <glyph glyph-name="quotedblright" unicode="&#x201d;" horiz-adv-x="910" 
 />
    <glyph glyph-name="quotedblbase" unicode="&#x201e;" horiz-adv-x="910" 
 />
    <glyph glyph-name="dagger" unicode="&#x2020;" horiz-adv-x="1014" 
 />
    <glyph glyph-name="daggerdbl" unicode="&#x2021;" horiz-adv-x="1014" 
 />
    <glyph glyph-name="bullet" unicode="&#x2022;" horiz-adv-x="1024" 
 />
    <glyph glyph-name="ellipsis" unicode="&#x2026;" horiz-adv-x="2048" 
 />
    <glyph glyph-name="guilsinglleft" unicode="&#x2039;" horiz-adv-x="631" 
 />
    <glyph glyph-name="guilsinglright" unicode="&#x203a;" horiz-adv-x="631" 
 />
    <glyph glyph-name="fraction" unicode="&#x2044;" horiz-adv-x="342" 
 />
    <glyph glyph-name="fraction" unicode="&#x2215;" horiz-adv-x="342" 
 />
    <glyph glyph-name="franc" unicode="&#x20a3;" horiz-adv-x="1014" 
 />
    <glyph glyph-name="lira" unicode="&#x20a4;" horiz-adv-x="1014" 
 />
    <glyph glyph-name="peseta" unicode="&#x20a7;" horiz-adv-x="2028" 
 />
    <glyph glyph-name="Euro" unicode="&#x20ac;" horiz-adv-x="953" 
d="M-44 840h280v-280h-280v280zM276 840h160v-40h-40v-80h40v-80h40v-160h40v40h40v-80h-120v-80h-40v-40h-40v80h40v40h-40v40h40v80h40v40h-40v-40h-40v40h-40v80h40v80h-80v80zM516 840h280v-280h-280v280zM-4 800v-200h200v200h-200zM556 800v-200h200v200h-200z
M436 800h40v-80h-40v80zM36 760h120v-120h-120v120zM596 760h120v-120h-120v120zM276 720h40v-40h-40v40zM276 600h40v-40h40v-80h-40v40h-40v80zM-44 520h40v-40h-40v40zM36 520h80v-80h-80v80zM156 520h120v-40h-120v40zM636 520h40v-80h40v-40h40v-40h-40v-40h-40v40h-80
v-40h-40v40h-40v40h120v120zM716 520h80v-40h-80v40zM276 480h40v-40h40v-40h-40v-200h-40v160h-40v40h-40v40h80v40zM-44 440h80v-40h-40v-40h-40v80zM116 440h40v-40h40v-40h40v-40h-120v40h-40v-40h-40v80h80v40zM756 440h40v-40h-40v40zM436 360h40v-40h-40v40zM396 320
h40v-40h40v-40h-80v80zM516 320h40v-40h-40v40zM636 320h40v-80h-40v80zM756 320h40v-80h-40v-40h-80v40h40v40h40v40zM-44 280h280v-280h-280v280zM556 280h40v-40h40v-80h120v-40h-160v-80h-40v40h-40v80h-80v40h120v80zM-4 240v-200h200v200h-200zM356 240h40v-40h-40v40
zM36 200h120v-120h-120v120zM756 200h40v-40h-40v40zM276 160h80v-40h-40v-40h-40v80zM396 160h40v-40h-40v40zM436 120h40v-40h-40v40zM316 80h40v-40h40v-40h-120v40h40v40zM476 80h40v-80h-40v80zM676 80h40v-40h-40v40zM756 80h40v-40h-40v40zM596 40h40v-40h-40v40z
" />
    <glyph glyph-name="afii61352" unicode="&#x2116;" horiz-adv-x="2271" 
 />
    <glyph glyph-name="trademark" unicode="&#x2122;" horiz-adv-x="1497" 
 />
    <glyph glyph-name="partialdiff" unicode="&#x2202;" horiz-adv-x="1014" 
 />
    <glyph glyph-name="Delta" unicode="&#x2206;" horiz-adv-x="1081" 
 />
    <glyph glyph-name="product" unicode="&#x220f;" horiz-adv-x="1515" 
 />
    <glyph glyph-name="summation" unicode="&#x2211;" horiz-adv-x="1206" 
 />
    <glyph glyph-name="minus" unicode="&#x2212;" horiz-adv-x="1014" 
 />
    <glyph glyph-name="radical" unicode="&#x221a;" horiz-adv-x="1014" 
 />
    <glyph glyph-name="infinity" unicode="&#x221e;" horiz-adv-x="1014" 
 />
    <glyph glyph-name="integral" unicode="&#x222b;" horiz-adv-x="665" 
 />
    <glyph glyph-name="approxequal" unicode="&#x2248;" horiz-adv-x="1014" 
 />
    <glyph glyph-name="lessequal" unicode="&#x2264;" horiz-adv-x="1014" 
 />
    <glyph glyph-name="greaterequal" unicode="&#x2265;" horiz-adv-x="1014" 
 />
    <glyph glyph-name="uniF001" unicode="&#xf001;" horiz-adv-x="1073" 
 />
    <glyph glyph-name="uniF001" unicode="&#xfb01;" horiz-adv-x="1073" 
 />
    <glyph glyph-name="uniF002" unicode="&#xf002;" horiz-adv-x="1081" 
 />
    <glyph glyph-name="uniF002" unicode="&#xfb02;" horiz-adv-x="1081" 
 />
    <glyph glyph-name=".null" horiz-adv-x="0" 
 />
    <glyph glyph-name="nonmarkingreturn" horiz-adv-x="508" 
 />
  </font>
</defs>
</svg>
